<svg width="1067" height="485" viewBox="0 0 1067 485" fill="none" xmlns="http://www.w3.org/2000/svg">
<g filter="url(#filter0_d_1186_28002)">
<path d="M495.562 451.555C443.154 451.555 400.04 430.216 370.018 393.439C339.989 356.651 323.034 304.384 323.034 242.505C323.034 180.626 339.989 128.356 370.018 91.5664C400.04 54.7861 443.154 33.4453 495.562 33.4453C547.97 33.4453 591.085 54.7861 621.108 91.5664C651.138 128.356 668.094 180.626 668.094 242.505C668.094 304.384 651.138 356.651 621.108 393.439C591.085 430.216 547.97 451.555 495.562 451.555ZM495.562 54.5438C448.87 54.5438 410.996 73.423 384.807 106.385C358.627 139.335 344.15 186.32 344.15 242.505C344.15 298.689 358.628 345.671 384.808 378.619C410.998 411.579 448.872 430.456 495.562 430.456C542.254 430.456 580.129 411.58 606.319 378.62C632.5 345.673 646.977 298.69 646.977 242.505C646.977 186.32 632.5 139.335 606.319 106.385C580.129 73.423 542.254 54.5438 495.562 54.5438Z" stroke="white"/>
<path d="M495.562 418.044C452.035 418.044 417.31 400.79 393.454 370.253C369.588 339.701 356.569 295.811 356.569 242.505C356.569 189.197 369.588 145.304 393.455 114.749C417.312 84.2091 452.037 66.9526 495.562 66.9526C539.09 66.9526 573.815 84.2099 597.672 114.75C621.539 145.305 634.559 189.198 634.559 242.505C634.56 295.811 621.542 339.701 597.674 370.253C573.818 400.79 539.091 418.044 495.562 418.044ZM495.562 88.0479C458.114 88.0479 428.618 103.026 408.499 129.858C388.392 156.671 377.682 195.279 377.682 242.505C377.682 289.729 388.392 328.333 408.499 355.145C428.618 381.973 458.114 396.949 495.562 396.949C533.01 396.949 562.507 381.973 582.628 355.145C602.735 328.333 613.445 289.729 613.445 242.505C613.445 195.279 602.735 156.671 582.629 129.857C562.509 103.026 533.012 88.0479 495.562 88.0479Z" stroke="white"/>
<path d="M861.896 451.555C809.488 451.555 766.374 430.216 736.353 393.439C706.323 356.651 689.368 304.384 689.368 242.505C689.368 180.626 706.323 128.356 736.353 91.5664C766.374 54.7861 809.488 33.4453 861.896 33.4453C914.304 33.4453 957.419 54.7861 987.442 91.5664C1017.47 128.356 1034.43 180.626 1034.43 242.505C1034.43 304.384 1017.47 356.651 987.443 393.439C957.421 430.216 914.306 451.555 861.896 451.555ZM861.896 54.5438C815.204 54.5438 777.331 73.423 751.141 106.385C724.961 139.335 710.485 186.32 710.485 242.505C710.485 298.689 724.962 345.671 751.142 378.619C777.332 411.579 815.206 430.456 861.896 430.456C908.588 430.456 946.463 411.58 972.653 378.62C998.834 345.673 1013.31 298.69 1013.31 242.505C1013.31 186.32 998.836 139.335 972.655 106.385C946.465 73.423 908.59 54.5438 861.896 54.5438Z" stroke="white"/>
<path d="M861.896 418.044C818.369 418.044 783.644 400.79 759.788 370.253C735.922 339.701 722.903 295.811 722.903 242.505C722.903 189.197 735.922 145.304 759.789 114.749C783.645 84.2091 818.37 66.9526 861.896 66.9526C905.424 66.9526 940.149 84.2099 964.006 114.75C987.873 145.305 1000.89 189.198 1000.89 242.505C1000.89 295.811 987.876 339.701 964.008 370.253C940.152 400.79 905.425 418.044 861.896 418.044ZM861.896 88.0479C824.448 88.0479 794.952 103.026 774.832 129.858C754.726 156.671 744.016 195.279 744.016 242.505C744.016 289.729 754.726 328.333 774.832 355.145C794.952 381.973 824.448 396.949 861.896 396.949C899.344 396.949 928.841 381.973 948.962 355.145C969.069 328.333 979.78 289.729 979.78 242.505C979.78 195.279 969.069 156.671 948.963 129.857C928.843 103.026 899.346 88.0479 861.896 88.0479Z" stroke="white"/>
<path d="M163.745 88.1354C105.105 88.1354 75.1761 123.639 71.5487 128.156L56.8789 113.523C66.7861 101.776 101.649 67.105 163.684 67.105C216.237 67.105 272.823 104.309 272.823 165.183C272.823 191.797 266.317 214.698 247.77 240.122C229.205 265.571 198.571 293.553 150.289 330.29L73.5365 388.686L73.8393 389.084V389.584H328.791L308.23 410.128H42.9545V409.896H42.4545L42.9545 409.896L42.9482 389.584H42.9545V389.084V386.046L44.2422 385.066L54.6368 377.158L137.794 313.887C185.319 277.727 213.918 251.288 230.634 228.526C247.37 205.735 252.193 186.631 252.193 165.183C252.193 126.334 217.644 88.1354 163.745 88.1354Z" stroke="white"/>
<path d="M48.0328 104.695L33.4057 90.1044C48.2378 73.3919 91.2615 33.4453 163.687 33.4453C232.15 33.4453 305.939 83.8556 305.943 165.18C305.943 235.346 266.839 283.205 170.357 356.62L144.019 376.656H109.96L157.857 340.22C207.162 302.704 239.026 273.499 258.562 246.4C278.115 219.277 285.313 194.27 285.313 165.183C285.313 96.4908 222.124 54.628 163.69 54.628C97.7597 54.628 59.8282 91.0163 48.0328 104.695Z" stroke="white"/>
<path d="M275.25 443.078H42.9543V422.537H295.808L275.25 443.078Z" stroke="white"/>
</g>
<defs>
<filter id="filter0_d_1186_28002" x="0" y="0" width="1067" height="485" filterUnits="userSpaceOnUse" color-interpolation-filters="sRGB">
<feFlood flood-opacity="0" result="BackgroundImageFix"/>
<feColorMatrix in="SourceAlpha" type="matrix" values="0 0 0 0 0 0 0 0 0 0 0 0 0 0 0 0 0 0 127 0" result="hardAlpha"/>
<feOffset/>
<feGaussianBlur stdDeviation="16"/>
<feColorMatrix type="matrix" values="0 0 0 0 1 0 0 0 0 1 0 0 0 0 1 0 0 0 0.8 0"/>
<feBlend mode="normal" in2="BackgroundImageFix" result="effect1_dropShadow_1186_28002"/>
<feBlend mode="normal" in="SourceGraphic" in2="effect1_dropShadow_1186_28002" result="shape"/>
</filter>
</defs>
</svg>
