<svg width="682" height="128" viewBox="0 0 682 128" fill="none" xmlns="http://www.w3.org/2000/svg">
<path d="M0.819946 73.422V121.248H27.0379V115.407H7.75595V73.422H0.819946Z" fill="white"/>
<path d="M41.8249 71.7429C39.0519 71.7429 36.9319 73.8579 36.9319 76.4879C36.9319 79.1879 39.0519 81.3069 41.8249 81.3069C44.6019 81.3069 46.7929 79.1869 46.7929 76.4879C46.7919 73.8589 44.6019 71.7429 41.8249 71.7429Z" fill="white"/>
<path d="M30.2489 92.335H39.0609V121.246H45.6219V87.002H30.2489V92.335Z" fill="white"/>
<path d="M75.8489 86.2739C72.3419 86.2739 69.4259 87.7349 67.0119 90.6519C66.4309 91.3819 65.9219 92.4089 65.9219 92.4089H65.7729L65.6219 87.0009H59.7839V121.244H66.4299V98.9709C68.1069 94.8859 72.2729 92.0419 74.8249 92.0419C77.6739 92.0419 79.2769 93.9429 79.2769 97.2229V121.244H85.9229V96.7109C85.9249 90.2899 82.0559 86.2739 75.8489 86.2739Z" fill="white"/>
<path d="M124.307 87.0039H117.014L106.06 99.348C105.69 99.777 105.031 100.729 105.031 100.729L104.884 100.654V72.4709H98.3829V121.246H104.884V105.769H105.031C105.031 105.769 105.616 106.572 105.911 106.939L118.243 121.246H126.425L110 102.628L124.307 87.0039Z" fill="white"/>
<path d="M127.248 77.8069H136.081V121.246H142.654V72.4719H127.248V77.8069Z" fill="white"/>
<path d="M171.857 111.538L171.789 111.679C169.741 114.456 167.773 116.572 164.118 116.572C160.978 116.572 159.083 114.603 159.083 111.388C159.083 106.789 162.147 105.257 166.241 105.257C168.136 105.257 170.541 105.695 171.857 106.057V111.538ZM167.258 86.2729C163.242 86.2729 159.376 87.078 156.307 89.048L156.524 94.4539C159.377 92.6259 162.885 91.8179 165.728 91.8179C168.721 91.8179 171.857 92.8419 171.857 96.4939V101.088L171.561 101.018C169.668 100.652 166.889 100.22 164.775 100.22C157.986 100.22 152.949 104.67 152.949 111.608C152.949 115.118 154.19 118.181 157.108 120.218C158.497 121.248 160.836 121.978 163.39 121.978C167.555 121.978 170.693 120.218 172.371 117.084H172.449C172.449 117.084 172.586 118.249 172.667 118.906L173.03 121.247H178.366V97.5879C178.365 90.7259 174.123 86.2729 167.258 86.2729Z" fill="white"/>
<path d="M201.227 77.074H194.574V87.003H186.035V92.335H194.574V121.247H201.227V92.335H210.716V87.003H201.227V77.074Z" fill="white"/>
<path d="M236.977 100.506H222.817C223.243 94.6709 226.465 91.5269 230.183 91.5269C234.278 91.5269 236.977 94.8149 236.977 99.9289V100.506ZM230.553 86.3469C219.889 86.3469 216.098 95.9869 216.098 104.309C216.098 114.527 220.33 121.902 231.577 121.902C235.885 121.902 239.094 120.735 242.24 119.349V113.945C239.461 115.189 236.246 116.358 232.449 116.358C225.584 116.358 222.743 112.487 222.743 105.766V105.328H243.33C243.33 104.379 243.401 102.333 243.401 100.948C243.401 97.3689 242.018 86.3469 230.553 86.3469Z" fill="white"/>
<path d="M268.644 86.2009C265.73 86.2009 263.175 87.2249 260.911 90.5059C260.619 91.0159 259.892 92.0449 259.892 92.0449H259.736L259.591 87.0039H254.116V121.247H260.619V99.1239C262.228 95.1099 265.222 91.7539 267.698 91.7539C270.329 91.7539 271.789 93.5779 271.72 97.3029V98.0339H277.7C277.778 97.2259 277.853 96.4259 277.853 95.6139C277.853 90.1389 274.128 86.2009 268.644 86.2009Z" fill="white"/>
<path d="M297.084 100.95L295.99 100.508C292.857 99.3469 290.513 98.1749 290.513 95.3999C290.513 92.4749 292.778 91.6749 295.253 91.6749C298.77 91.6749 301.829 92.9129 304.823 94.6709L304.97 89.0489C301.829 87.0039 298.614 86.2759 295.333 86.2759C289.708 86.2759 284.389 89.6299 284.389 95.7669C284.389 101.677 289.058 104.16 293.287 105.695L294.387 106.133C298.903 107.737 300.729 108.978 300.729 111.753C300.729 115.118 298.105 116.427 294.747 116.427C290.221 116.427 287.155 114.889 283.942 112.556L283.799 118.396C287.011 120.885 290.739 121.902 294.747 121.902C300.955 121.902 306.866 118.908 306.866 111.979C306.865 104.892 301.687 102.703 297.084 100.95Z" fill="white"/>
<path d="M274.42 47.7729L265.031 38.3849L274.415 28.9989L270.263 24.8409L256.717 38.3849L270.261 51.9319L274.42 47.7729Z" fill="white"/>
<path d="M137.396 20.6219C133.891 20.6219 130.973 22.0829 128.559 25.0009C127.977 25.7319 127.465 26.757 127.465 26.757H127.316L127.17 21.3489H121.334V55.5919H127.977V33.3199C129.651 29.2359 133.821 26.3909 136.373 26.3909C139.222 26.3909 140.825 28.2919 140.825 31.5719V55.5929H147.471V31.0599C147.471 24.6379 143.598 20.6219 137.396 20.6219Z" fill="white"/>
<path d="M103.834 34.8549H89.6729C90.1019 29.0199 93.3219 25.8759 97.0419 25.8759C101.137 25.8759 103.834 29.1619 103.834 34.2759V34.8549ZM97.4049 20.6959C86.7479 20.6959 82.9519 30.3359 82.9519 38.6569C82.9519 48.8719 87.1859 56.2479 98.4319 56.2479C102.737 56.2479 105.95 55.0809 109.094 53.6959V48.2899C106.315 49.5369 103.104 50.7069 99.3079 50.7069C92.4429 50.7069 89.5969 46.8309 89.5969 40.1149V39.6769H110.186C110.186 38.7279 110.257 36.6829 110.257 35.2969C110.258 31.7149 108.876 20.6959 97.4049 20.6959Z" fill="white"/>
<path d="M171.724 35.2959L170.628 34.8539C167.488 33.6949 165.151 32.5209 165.151 29.7459C165.151 26.8239 167.413 26.021 169.888 26.021C173.405 26.021 176.466 27.2589 179.458 29.0189L179.605 23.3969C176.465 21.3489 173.251 20.6219 169.972 20.6219C164.35 20.6219 159.022 23.9779 159.022 30.1129C159.022 36.0229 163.692 38.5069 167.921 40.0409L169.024 40.4789C173.539 42.0829 175.369 43.3239 175.369 46.0969C175.369 49.4639 172.738 50.7729 169.379 50.7729C164.856 50.7729 161.791 49.2359 158.575 46.9039L158.435 52.7419C161.648 55.2329 165.37 56.2479 169.379 56.2479C175.589 56.2479 181.504 53.2539 181.504 46.3249C181.505 39.2389 176.321 37.0489 171.724 35.2959Z" fill="white"/>
<path d="M13.5889 36.83L18.3899 21.325H18.4179L23.2139 36.83H13.5889ZM16.2789 7.75403L0.820923 55.573H7.78792L11.9269 42.207H24.8789L29.0209 55.573H36.0369L20.5109 7.75403H16.2789Z" fill="white"/>
<path d="M52.0059 6.81897H45.4349V55.594H52.0059V6.81897Z" fill="white"/>
<path d="M72.0979 6.81897H65.5249V55.594H72.0979V6.81897Z" fill="white"/>
<path d="M223.778 24.8409L219.626 29.0019L229.01 38.3869L219.622 47.7729L223.778 51.9319L237.323 38.3869L223.778 24.8409Z" fill="white"/>
<path d="M356.905 0.515991H354.683V127.548H356.905V0.515991Z" fill="white"/>
<path d="M530.883 123.606C501.617 123.606 482.707 99.748 482.707 65.214C482.707 30.679 501.617 6.81897 530.883 6.81897C560.149 6.81897 579.06 30.679 579.06 65.214C579.059 99.748 560.149 123.606 530.883 123.606ZM530.883 12.977C504.965 12.977 488.865 33.947 488.865 65.214C488.865 96.481 504.965 117.448 530.883 117.448C556.801 117.448 572.902 96.481 572.902 65.214C572.902 33.946 556.801 12.977 530.883 12.977Z" fill="white"/>
<path d="M530.883 114.269C506.563 114.269 492.044 94.965 492.044 65.214C492.044 35.463 506.563 16.156 530.883 16.156C555.203 16.156 569.723 35.464 569.723 65.214C569.723 94.964 555.203 114.269 530.883 114.269ZM530.883 22.313C510.113 22.313 498.201 38.932 498.201 65.214C498.201 91.495 510.113 108.111 530.883 108.111C551.653 108.111 563.565 91.495 563.565 65.214C563.565 38.932 551.653 22.313 530.883 22.313Z" fill="white"/>
<path d="M632.88 123.606C603.614 123.606 584.704 99.748 584.704 65.214C584.704 30.679 603.614 6.81897 632.88 6.81897C662.146 6.81897 681.057 30.679 681.057 65.214C681.057 99.748 662.147 123.606 632.88 123.606ZM632.88 12.977C606.962 12.977 590.862 33.947 590.862 65.214C590.862 96.481 606.962 117.448 632.88 117.448C658.798 117.448 674.899 96.481 674.899 65.214C674.899 33.946 658.799 12.977 632.88 12.977Z" fill="white"/>
<path d="M632.88 114.269C608.56 114.269 594.041 94.965 594.041 65.214C594.041 35.463 608.56 16.156 632.88 16.156C657.2 16.156 671.72 35.464 671.72 65.214C671.72 94.964 657.201 114.269 632.88 114.269ZM632.88 22.313C612.11 22.313 600.198 38.932 600.198 65.214C600.198 91.495 612.11 108.111 632.88 108.111C653.65 108.111 665.562 91.495 665.562 65.214C665.563 38.932 653.65 22.313 632.88 22.313Z" fill="white"/>
<path d="M413.463 106.059L434.834 89.787C461.724 69.31 469.005 58.558 469.005 43.668C469.005 26.603 453.16 16.199 438.479 16.199C420.975 16.199 411.211 26.091 408.552 29.282L412.837 33.56C413.123 33.202 421.417 22.338 438.495 22.338C453.434 22.338 462.982 32.928 462.982 43.669C462.982 55.565 457.646 64.846 431.185 84.995C404.724 105.144 404.724 105.144 404.724 105.144V106.06H404.722L404.724 111.859V112.063H478.781L484.784 106.06H413.463V106.059Z" fill="white"/>
<path d="M438.479 6.81897C418.115 6.81897 406.075 18.14 402.014 22.753L406.285 27.017C409.439 23.315 419.992 13 438.479 13C454.698 13 472.203 24.627 472.203 43.667C472.203 59.82 464.222 71.427 436.771 92.331L423.106 102.735H433.049L440.419 97.124C467.284 76.665 478.225 63.292 478.225 43.667C478.226 20.907 457.594 6.81897 438.479 6.81897Z" fill="white"/>
<path d="M404.724 115.242V121.245H469.599L475.602 115.242H404.724Z" fill="white"/>
</svg>
