<svg fill="none" xmlns="http://www.w3.org/2000/svg" viewBox="0 0 24 25" class="svg-icon"><path fill-rule="evenodd" clip-rule="evenodd" d="M15.707 10.285a1 1 0 010 1.414l-4 4a1 1 0 01-1.414 0l-2-2a1 1 0 111.414-1.414L11 13.578l3.293-3.293a1 1 0 011.414 0z" fill="currentColor"/><path fill-rule="evenodd" clip-rule="evenodd" d="M10.357 3.992h3.286c1.084 0 1.958 0 2.666.058.729.06 1.369.185 1.961.487a5 5 0 012.185 2.185c.302.592.428 1.232.487 1.961.058.708.058 1.582.058 2.666v3.286c0 1.083 0 1.958-.058 2.665-.06.73-.185 1.37-.487 1.962a5 5 0 01-2.185 2.185c-.592.302-1.232.428-1.961.487-.708.058-1.582.058-2.666.058h-3.286c-1.084 0-1.958 0-2.666-.058-.728-.06-1.369-.185-1.96-.487a5 5 0 01-2.186-2.185c-.302-.593-.428-1.233-.487-1.962C3 16.593 3 15.718 3 14.635v-3.286c0-1.084 0-1.958.058-2.666.06-.729.185-1.369.487-1.961A5 5 0 015.73 4.537c.592-.302 1.233-.428 1.961-.487.708-.058 1.582-.058 2.666-.058zM7.854 6.043c-.605.05-.953.142-1.216.276a3 3 0 00-1.311 1.31c-.134.264-.226.612-.276 1.217-.05.617-.051 1.41-.051 2.546v3.2c0 1.136 0 1.929.051 2.546.05.605.142.952.276 1.216a3 3 0 001.311 1.31c.263.135.611.227 1.216.277.617.05 1.41.05 2.546.05h3.2c1.137 0 1.929 0 2.546-.05.605-.05.953-.142 1.216-.276a3 3 0 001.311-1.311c.134-.264.226-.611.276-1.216.05-.617.051-1.41.051-2.546v-3.2c0-1.137 0-1.93-.051-2.546-.05-.605-.142-.953-.276-1.216a3 3 0 00-1.311-1.311c-.263-.134-.611-.227-1.216-.276-.617-.05-1.41-.051-2.546-.051h-3.2c-1.137 0-1.929 0-2.546.051z" fill="currentColor"/></svg>