<svg width="1280" height="1280" viewBox="0 0 1280 1280" fill="none" xmlns="http://www.w3.org/2000/svg">
<g clip-path="url(#clip0_2318_171227)">
<path d="M197.245 482.2C185.245 483.2 171.445 494.6 162.845 502.2C127.445 533.4 98.2445 573.2 74.6445 613.2C73.8445 614.4 73.4445 615.8 71.8445 616.8C72.8445 607.6 124.045 508.2 132.045 492.6C133.445 489.8 134.845 486.8 135.445 483.8C135.645 483.4 135.645 482.8 135.645 482.4C135.645 479.8 133.645 478.2 131.245 478.2C130.445 478.2 129.645 478.4 128.845 478.8C125.045 480.6 118.845 489.2 116.845 493C115.445 495.6 115.045 497.6 115.045 499C115.045 501 115.645 502.2 115.645 503.8C115.645 504.6 115.445 505.4 114.845 506.4C87.8445 555.8 65.8445 601.6 46.4445 654.8C31.6445 695.8 15.8445 724 5.64453 768.2C5.04453 771.2 3.44453 776.6 3.44453 781.2C3.44453 785 4.44453 788 7.64453 788.6H8.64453C13.0445 788.6 14.2445 781.8 15.2445 778C19.4445 761.8 23.6445 745.8 28.2445 729.8C34.0445 710.4 39.4445 698.4 47.4445 679.8C72.8445 620.8 117.045 548.6 166.445 505.2C173.845 498.8 187.645 487.8 197.445 487.2H198.045C206.845 487.2 210.645 495.2 211.245 509.4V513.8C211.245 561.6 183.645 620.2 152.245 657C143.045 667.6 126.645 683.8 112.245 687.2C109.845 687.8 107.645 688 105.245 688C99.4445 688 93.8445 686.4 87.8445 683.8C76.2445 678.6 74.4445 669 74.4445 661.8C74.4445 658.8 74.6445 656.2 74.8445 654.4C74.8445 653 74.4445 652.2 73.4445 652H73.2445C71.8445 652 71.6445 653.4 71.4445 654.6C71.0445 657.6 70.6445 660.8 70.6445 663.8C70.6445 671 72.4445 678.2 78.2445 683.4C86.2445 690.6 95.2445 694.4 105.445 694.4C107.645 694.4 110.245 694.2 112.645 693.8C127.845 691.2 147.645 671.4 157.045 660.4C187.845 624.2 216.845 564.2 216.845 514.8C216.845 512 216.845 509.2 216.645 506.4C215.645 495.2 211.845 482.2 198.845 482.2H197.245ZM198.827 703.6C219.427 702.6 260.627 678.4 275.027 665.8C275.627 665.2 275.827 664.8 275.827 664.6C275.827 664.2 275.627 664 275.427 664C275.027 664 274.627 664.2 274.227 664.6C258.827 676.4 226.827 693.8 207.227 698.6C204.827 699.2 202.627 699.4 200.427 699.4C192.227 699.4 187.627 695 187.627 688.6C187.627 685.4 188.627 681.8 191.027 678.2C192.427 678.6 193.627 678.8 194.827 678.8C196.827 678.8 198.827 678.2 200.627 677.2C206.627 673.8 212.827 670.4 218.427 666.6C221.227 664.8 223.227 661.8 225.227 659C226.427 657.4 227.027 655.4 227.027 653.4C227.027 650 224.827 647 220.627 647C219.027 647 217.227 647.2 215.227 648.2C200.827 654.2 190.627 664.4 184.827 678.6C183.627 681.4 183.027 684.6 183.027 687.8C183.027 695.8 187.227 703.6 197.627 703.6H198.827ZM216.827 654.8C215.827 659.8 203.027 670 194.427 672.6C200.827 664.6 207.227 657.8 216.827 654.8ZM266.282 729C267.682 733.4 270.082 737 276.682 738.2C277.482 738.4 278.282 738.4 279.282 738.4C304.482 738.4 354.082 682.4 378.482 667.2C379.482 666.8 380.282 665.8 381.082 665C380.882 664.8 380.682 664.4 380.282 664C378.882 664.8 377.482 665.4 376.082 666.2C360.482 675 303.482 735.8 280.082 735.8C279.082 735.8 278.082 735.6 277.282 735.4C272.482 734.2 270.282 730.8 269.882 726.4V725.2C269.882 708 294.282 681.8 295.482 675.4C295.882 674 295.882 672.8 295.882 671.6C295.882 664 289.082 661.6 282.082 659.2C284.082 657 284.682 655 284.682 653.2C284.682 649.4 281.282 647 277.882 647C276.282 647 274.682 647.6 273.482 648.8C270.082 652.8 268.282 657.4 268.282 661C268.282 663 268.882 664.6 269.882 665.6C274.882 669 286.282 668.6 286.282 674C286.282 674.4 286.082 674.8 286.082 675.2C283.882 683.4 265.482 706 265.482 723C265.482 725.2 265.682 727.2 266.282 729ZM381.56 756.2C403.36 747.6 422.96 726.2 431.56 704.4C433.56 699.2 434.16 695 434.16 691.8C434.16 686 432.36 682.8 432.36 681.6C432.36 681.2 432.36 681 432.76 680.8C445.36 675.4 479.76 667.8 492.16 665.8C494.36 665.4 495.16 665 495.16 664.6C495.16 664.2 494.36 664 492.96 664C492.16 664 491.36 664 490.36 664.2C476.16 666 443.36 673 429.96 677.8C426.76 672.2 416.56 672 406.36 671.2C396.36 670.2 386.36 668.6 385.96 663.8V663.4C385.96 652.6 413.96 632.6 424.96 632.6C426.96 632.6 428.36 633.2 428.96 634.6C430.76 638.2 432.56 639.4 434.36 639.4C437.56 639.4 439.96 634.4 439.96 631.4C439.96 630.8 439.96 630.4 439.76 630C438.56 626 433.56 622.2 429.36 621.6C428.96 621.6 428.36 621.4 427.76 621.4C413.76 621.4 378.96 647.8 378.96 664.2C378.96 665 379.16 666 379.36 666.8C383.16 680.2 423.16 676 424.76 679.8C400.56 688.4 372.16 704.4 358.36 728C354.56 734.4 352.76 740.4 352.76 745.2C352.76 753.8 358.36 759.2 367.76 759.2C371.76 759.2 376.36 758.2 381.56 756.2ZM361.36 729.4C373.16 709.2 406.16 690.2 427.36 683.4C428.96 686 429.56 688.6 429.56 691.2C429.56 693 429.36 695 428.76 696.8C422.16 719.4 400.56 744.4 378.56 752.6C374.36 754.2 370.36 755 367.16 755C360.36 755 355.96 751.6 355.96 745C355.96 741 357.56 735.8 361.36 729.4ZM498.632 703.6C519.232 702.6 560.432 678.4 574.832 665.8C575.432 665.2 575.632 664.8 575.632 664.6C575.632 664.2 575.432 664 575.232 664C574.832 664 574.432 664.2 574.032 664.6C558.632 676.4 526.632 693.8 507.032 698.6C504.632 699.2 502.432 699.4 500.232 699.4C492.032 699.4 487.432 695 487.432 688.6C487.432 685.4 488.432 681.8 490.832 678.2C492.232 678.6 493.432 678.8 494.632 678.8C496.632 678.8 498.632 678.2 500.432 677.2C506.432 673.8 512.632 670.4 518.232 666.6C521.032 664.8 523.032 661.8 525.032 659C526.232 657.4 526.832 655.4 526.832 653.4C526.832 650 524.632 647 520.432 647C518.832 647 517.032 647.2 515.032 648.2C500.632 654.2 490.432 664.4 484.632 678.6C483.432 681.4 482.832 684.6 482.832 687.8C482.832 695.8 487.032 703.6 497.432 703.6H498.632ZM516.632 654.8C515.632 659.8 502.832 670 494.232 672.6C500.632 664.6 507.032 657.8 516.632 654.8ZM566.087 729C567.487 733.4 569.887 737 576.487 738.2C577.287 738.4 578.087 738.4 579.087 738.4C604.287 738.4 653.887 682.4 678.287 667.2C679.287 666.8 680.087 665.8 680.887 665C680.687 664.8 680.487 664.4 680.087 664C678.687 664.8 677.287 665.4 675.887 666.2C660.287 675 603.287 735.8 579.887 735.8C578.887 735.8 577.887 735.6 577.087 735.4C572.287 734.2 570.087 730.8 569.687 726.4V725.2C569.687 708 594.087 681.8 595.287 675.4C595.687 674 595.687 672.8 595.687 671.6C595.687 664 588.887 661.6 581.887 659.2C583.887 657 584.487 655 584.487 653.2C584.487 649.4 581.087 647 577.687 647C576.087 647 574.487 647.6 573.287 648.8C569.887 652.8 568.087 657.4 568.087 661C568.087 663 568.687 664.6 569.687 665.6C574.687 669 586.087 668.6 586.087 674C586.087 674.4 585.887 674.8 585.887 675.2C583.687 683.4 565.287 706 565.287 723C565.287 725.2 565.487 727.2 566.087 729ZM674.765 714C678.565 713.8 679.565 712.2 682.565 710C703.165 691.2 721.165 672.6 745.765 656C746.165 655.6 746.365 655 746.365 654.6C746.365 653.6 745.565 652.8 744.365 652.8C743.765 652.8 743.165 653 742.365 653.4C718.565 669.8 697.365 688.8 677.365 706C677.165 706.2 676.965 706.2 676.765 706.2C676.165 706.2 675.765 706 675.765 705.2V705C677.365 692.6 685.965 673.8 690.165 660.8C690.365 660.4 690.365 660 690.365 659.6C690.365 657.4 688.365 655.6 686.365 655.6C685.565 655.6 684.565 655.8 683.965 656.6C676.365 664.2 668.965 688.8 666.365 699.8C666.165 701.2 665.965 702.6 665.965 704C665.965 709 667.765 714 674.565 714H674.765ZM760.546 703.6C781.146 702.6 822.346 678.4 836.746 665.8C837.346 665.2 837.546 664.8 837.546 664.6C837.546 664.2 837.346 664 837.146 664C836.746 664 836.346 664.2 835.946 664.6C820.546 676.4 788.546 693.8 768.946 698.6C766.546 699.2 764.346 699.4 762.146 699.4C753.946 699.4 749.346 695 749.346 688.6C749.346 685.4 750.346 681.8 752.746 678.2C754.146 678.6 755.346 678.8 756.546 678.8C758.546 678.8 760.546 678.2 762.346 677.2C768.346 673.8 774.546 670.4 780.146 666.6C782.946 664.8 784.946 661.8 786.946 659C788.146 657.4 788.746 655.4 788.746 653.4C788.746 650 786.546 647 782.346 647C780.746 647 778.946 647.2 776.946 648.2C762.546 654.2 752.346 664.4 746.546 678.6C745.346 681.4 744.746 684.6 744.746 687.8C744.746 695.8 748.946 703.6 759.346 703.6H760.546ZM778.546 654.8C777.546 659.8 764.746 670 756.146 672.6C762.546 664.6 768.946 657.8 778.546 654.8ZM828.001 729C829.401 733.4 831.801 737 838.401 738.2C839.201 738.4 840.001 738.4 841.001 738.4C866.201 738.4 915.801 682.4 940.201 667.2C941.201 666.8 942.001 665.8 942.801 665C942.601 664.8 942.401 664.4 942.001 664C940.601 664.8 939.201 665.4 937.801 666.2C922.201 675 865.201 735.8 841.801 735.8C840.801 735.8 839.801 735.6 839.001 735.4C834.201 734.2 832.001 730.8 831.601 726.4V725.2C831.601 708 856.001 681.8 857.201 675.4C857.601 674 857.601 672.8 857.601 671.6C857.601 664 850.801 661.6 843.801 659.2C845.801 657 846.401 655 846.401 653.2C846.401 649.4 843.001 647 839.601 647C838.001 647 836.401 647.6 835.201 648.8C831.801 652.8 830.001 657.4 830.001 661C830.001 663 830.601 664.6 831.601 665.6C836.601 669 848.001 668.6 848.001 674C848.001 674.4 847.801 674.8 847.801 675.2C845.601 683.4 827.201 706 827.201 723C827.201 725.2 827.401 727.2 828.001 729ZM1066.28 697.8C1068.88 699.2 1071.68 699.8 1074.68 699.8C1092.28 699.8 1114.08 677.6 1124.28 666.2C1124.68 665.8 1124.88 665.2 1124.88 664.8C1124.88 664.4 1124.88 664.2 1124.68 664.2H1124.48C1122.08 664.2 1096.88 696.4 1076.48 696.4C1073.88 696.4 1071.28 695.8 1068.88 694.6C1064.88 692.4 1063.88 684.8 1063.88 677C1063.88 670.8 1064.48 664.2 1064.48 660.4V659.6C1064.28 655.6 1062.48 653.2 1059.68 653.2C1058.48 653.2 1057.28 653.6 1055.68 654.6C1048.88 658.8 1026.68 679 1018.08 686.4C1018.08 684.2 1018.68 682.6 1019.48 681C1024.08 672.8 1029.88 661.8 1032.88 653.6C1033.08 653 1033.28 652 1033.28 651.2C1033.28 650.6 1033.08 650 1032.68 649.6C1032.28 649.4 1031.48 648.4 1030.08 648.4H1029.68C1028.28 648.4 1026.48 649.6 1024.48 651.2C1010.48 662.4 982.879 695.4 960.879 695.6C957.079 695.6 954.479 692.6 954.479 687.8C954.479 685.6 954.879 683.2 956.079 680.6C960.279 671.2 967.279 660.6 968.479 657C968.679 656.6 968.679 656 968.679 655.4C968.679 653.6 967.879 651.8 966.079 651.8H965.479C964.279 652.2 960.879 658 960.079 658H959.879C958.279 655.2 956.079 653.8 953.679 653.8C950.679 653.8 947.279 656 943.679 659.8C942.879 660.8 934.879 672.4 933.679 679.4V680.4C933.679 682.8 935.679 684.4 938.079 684.4C939.079 684.4 940.279 684.2 941.279 683.6C945.879 680.8 949.679 676.2 955.279 671C953.079 675.4 951.079 681.6 951.079 687C951.079 693 953.679 697.8 961.679 697.8H962.679C983.479 695.8 1007.48 670.2 1024.08 654.8C1025.88 653.2 1027.68 651.4 1028.48 651.4C1028.68 651.4 1028.88 651.4 1028.88 651.6C1028.88 652.8 1025.48 657.4 1024.88 658.6C1019.68 668.6 1012.28 678.6 1008.28 690.4C1006.88 693.6 1001.68 698 1001.68 701.2C1001.68 702 1002.08 702.8 1003.08 703.4C1004.08 704 1005.08 704.4 1006.08 704.4C1010.08 704.4 1013.68 700 1017.28 696.8C1029.48 685.4 1041.68 674 1054.08 662.6C1055.28 661.4 1056.88 660.6 1059.08 658.8C1058.88 662.6 1058.68 665.4 1058.68 668.2C1058.48 671.2 1058.28 674.8 1058.28 678.6C1058.28 686.4 1059.48 694.4 1066.28 697.8ZM941.879 677C941.679 677.2 941.479 677.2 941.279 677.2C941.079 677.2 941.079 677 941.079 676.8C941.079 674.2 947.479 662.6 950.879 660.8C951.879 660.4 952.679 660 953.279 660C954.479 660 955.279 660.8 956.679 663C949.479 669.6 946.479 674.2 941.879 677ZM1137.9 708.6C1157.1 702.4 1185.9 679.8 1199.7 665.4C1200.1 665 1200.1 664.8 1200.1 664.6C1200.1 664.2 1199.9 664 1199.7 664C1199.5 664 1199.1 664.2 1198.9 664.4C1183.3 677.2 1157.5 698.6 1137.9 705C1135.3 705.8 1132.9 706.2 1130.3 706.2C1124.7 706.2 1119.9 703.6 1119.9 696.8V695.8C1120.5 682 1134.7 661.6 1144.9 653C1145.7 652.2 1147.1 651.8 1148.5 651C1149.1 653.6 1149.3 655.4 1149.9 657.4C1150.3 659 1151.3 659.8 1152.5 659.8C1153.3 659.8 1154.1 659.6 1154.9 658.8C1157.1 656.8 1158.1 653.8 1158.1 651C1158.1 645.8 1154.7 640.8 1148.9 640.8C1145.1 640.8 1140.3 643 1134.9 649.2C1124.9 660.4 1113.3 677.4 1113.3 693.4V695.6C1113.9 705 1119.9 710.2 1128.7 710.2C1131.5 710.2 1134.5 709.6 1137.9 708.6ZM1204.1 703.6C1224.7 702.6 1265.9 678.4 1280.3 665.8C1280.9 665.2 1281.1 664.8 1281.1 664.6C1281.1 664.2 1280.9 664 1280.7 664C1280.3 664 1279.9 664.2 1279.5 664.6C1264.1 676.4 1232.1 693.8 1212.5 698.6C1210.1 699.2 1207.9 699.4 1205.7 699.4C1197.5 699.4 1192.9 695 1192.9 688.6C1192.9 685.4 1193.9 681.8 1196.3 678.2C1197.7 678.6 1198.9 678.8 1200.1 678.8C1202.1 678.8 1204.1 678.2 1205.9 677.2C1211.9 673.8 1218.1 670.4 1223.7 666.6C1226.5 664.8 1228.5 661.8 1230.5 659C1231.7 657.4 1232.3 655.4 1232.3 653.4C1232.3 650 1230.1 647 1225.9 647C1224.3 647 1222.5 647.2 1220.5 648.2C1206.1 654.2 1195.9 664.4 1190.1 678.6C1188.9 681.4 1188.3 684.6 1188.3 687.8C1188.3 695.8 1192.5 703.6 1202.9 703.6H1204.1ZM1222.1 654.8C1221.1 659.8 1208.3 670 1199.7 672.6C1206.1 664.6 1212.5 657.8 1222.1 654.8Z" fill="rgba(255, 255, 255, 0.3)"/>
</g>
<defs>
<clipPath id="clip0_2318_171227">
<rect width="1280" height="1280" fill="white"/>
</clipPath>
</defs>
</svg>
