<svg width="1280" height="1280" viewBox="0 0 1280 1280" fill="none" xmlns="http://www.w3.org/2000/svg">
<path d="M223.54 566.4C220.14 570.8 217.34 575.6 215.94 581C215.74 581.8 215.74 582.4 215.74 583C215.74 586.2 217.94 587.6 220.74 587.6C224.34 587.6 228.94 584.8 229.34 579.8C229.54 574 232.54 569.6 235.74 565.4C248.54 548.4 262.54 532.4 278.54 518.4C290.34 508 314.74 489.6 330.74 486.8C332.14 486.6 333.34 486.4 334.54 486.4C343.34 486.4 349.94 492.2 351.74 501.6C351.94 503.2 352.14 504.8 352.14 506.6C352.14 535.4 319.94 593.4 309.14 613.6C284.54 659.4 260.94 705.6 240.74 753.4C236.34 763.6 225.54 788.6 223.34 798.8V799.2C223.34 799.8 223.74 800.6 224.34 800.6C224.74 800.6 225.54 800 226.14 798.2C229.34 788.6 233.14 779.4 237.14 770.2C255.14 729.2 275.34 689.2 296.74 650C315.14 616 358.74 542.8 359.34 506.2C359.34 505.2 359.34 503.4 359.14 501.8C357.74 488.6 347.94 479.2 335.14 478.8H334.34C321.94 478.8 305.94 487.8 296.14 494C265.74 513.6 244.34 538.2 223.54 566.4ZM339.416 662.2C340.216 661.2 340.416 660 340.416 658.8C340.416 656 338.416 653.4 335.816 653.4C334.616 653.4 333.016 654.2 331.616 656.2C330.016 658.6 327.416 663 326.016 665.4C320.216 674.8 315.616 680.6 310.016 690.6C308.616 693 307.016 696.2 307.016 699.2C307.016 701.2 307.616 702.8 309.416 704.2C310.416 705 311.616 705.4 312.616 705.4C316.816 705.4 321.416 700.8 324.416 698C337.216 686.6 355.816 669 369.216 659.4C370.816 658.2 372.416 656.6 374.816 656.6C374.816 656.8 375.016 657.2 375.016 657.6C375.016 662 369.616 674.2 369.616 682V682.4C369.816 692 375.216 697.8 383.216 697.8C385.016 697.8 387.016 697.6 389.016 697C406.016 692.4 445.616 652.4 447.416 651C447.216 652.6 430.216 677.2 426.216 688.6C425.416 691.2 423.816 695 423.816 698.2C423.816 700.2 424.616 702.2 426.616 703.2C427.216 703.6 427.816 703.6 428.416 703.6C432.016 703.6 435.416 698.4 439.416 694.2C449.816 683.2 461.216 673.6 473.816 665.4C475.016 664.6 481.416 660.4 484.416 660.4C485.416 660.4 486.016 660.8 486.016 662V662.2C485.816 665.6 485.416 670.4 485.416 675.6C485.416 686.2 487.416 698 497.816 698.6H499.616C518.616 698.6 539.416 679.4 552.416 667C553.216 666.2 553.616 665.4 553.616 665C553.616 664.4 553.216 664.2 552.816 664.2C552.216 664.2 551.616 664.4 551.016 665C539.016 678 516.416 695.8 500.616 695.8C499.616 695.8 498.816 695.8 497.816 695.6C491.016 694.6 489.616 686.2 489.616 677.6C489.616 671.8 490.416 665.8 490.416 662.2V661.4C490.416 656.6 489.016 653.8 485.216 653.8C484.216 653.8 483.016 654 481.816 654.4C467.416 658.4 443.816 680.6 440.816 681.6C440.616 681.2 440.616 681 440.616 680.6C440.616 679.4 441.616 678.4 442.016 677.4C445.616 670.8 453.816 657.4 457.416 650.8C458.216 649.2 459.416 646.8 459.416 644.6C459.416 643.4 459.016 642.4 458.016 641.8C457.416 641.4 456.816 641.2 456.216 641.2C454.216 641.2 452.016 643.4 450.216 645C434.016 659.2 410.416 685.8 390.216 692.8C388.416 693.4 386.416 693.8 384.616 693.8C381.416 693.8 378.416 692.4 376.616 688.6C375.616 686.4 375.216 684 375.216 681.8C375.216 675.6 378.016 669 380.016 662.2C380.616 660.4 381.216 657.8 381.216 655.4C381.216 652.6 380.216 650.2 376.416 650.2H375.216C372.416 650.4 370.016 651.8 367.616 653.2C356.016 660.2 335.816 678.4 324.816 687.6C323.616 688.6 322.616 689.8 320.816 690.6C320.816 688.6 322.016 687.4 322.616 686.2C328.816 675.8 333.216 672.6 339.416 662.2ZM537.635 698.4C537.835 702.6 540.435 705.2 543.835 705.2C545.235 705.2 546.435 704.8 547.835 704.2C550.435 703 552.635 700.8 554.435 698.6C560.835 690.4 565.835 681.4 569.235 671.6C570.035 669.2 570.635 666.8 570.635 664.2C570.635 662.8 570.435 661.2 570.035 659.8C569.635 658.6 569.435 657.8 569.435 657C569.435 654.8 570.835 653.8 573.835 652.4C582.435 648.4 591.035 644.6 600.235 641.6C604.235 640.4 608.035 638.8 612.435 638.8C612.635 639.2 612.635 639.6 612.635 640C612.635 640.8 612.235 641.4 612.035 642C608.835 648 605.035 653.8 601.235 659.6C589.635 677.6 580.435 696.8 574.435 717.4C573.435 720.6 572.635 723.6 572.635 726.8V727.8C572.835 731.8 575.235 734.2 578.835 734.2C579.435 734.2 580.035 734.2 580.835 734C584.235 733.2 587.235 731.2 590.035 729C594.635 725.2 598.835 720.8 602.835 716.4C616.635 701.6 631.435 687.8 647.235 675C665.635 660 684.635 646 706.435 635.8C706.835 635.6 707.435 635.4 707.835 635.2C708.635 634.8 709.235 634.4 709.235 633.6C709.235 633.4 709.235 633.2 709.035 633C708.835 632.4 708.435 632.2 707.835 632.2C707.435 632.2 707.235 632.4 706.835 632.4C706.035 632.6 705.235 633 704.435 633.4C700.035 635.4 695.635 637.4 691.435 639.8C657.835 658.8 627.435 682.2 600.235 709.8C595.635 714.4 591.235 719.2 586.035 723.2C584.435 724.4 582.835 726 580.435 726V724.8C580.435 722.4 581.435 720.2 582.035 718C588.035 698.6 596.235 680 607.035 662.6C610.235 657.2 613.235 651.8 616.235 646.4C617.235 644.8 618.035 642.8 618.635 641C618.835 640.2 619.035 639.4 619.035 638.8C619.035 635.6 617.035 633.8 613.435 633.8H612.635C610.835 634 609.035 634.6 607.235 635C595.235 638 583.835 642.8 572.435 647.6C571.035 648 569.435 649 568.035 649C564.235 649 561.635 650.8 559.435 653.4C550.635 663.4 543.635 674.6 539.235 687C538.235 689.8 537.435 692.6 537.435 695.6C537.435 696.6 537.435 697.4 537.635 698.4ZM563.035 659.6C564.035 661 564.435 662.4 564.435 663.6C564.435 665 563.835 666.4 563.435 667.6C560.235 677.2 554.835 685.6 548.235 693.2C548.035 693.4 547.435 693.4 546.235 694C549.435 681.2 556.035 670.6 563.035 659.6ZM701.36 687.4C708.16 685.2 721.76 675.8 728.76 671.2C726.56 675.6 724.56 681.8 724.56 687.2C724.56 693 727.16 697.8 734.96 697.8H736.16C753.96 697 787.76 677.6 800.36 664.8C800.56 664.6 800.56 664.4 800.56 664.4C800.56 664.2 800.56 664.2 800.36 664.2H800.16C797.16 665.4 762.16 694.4 734.96 694.4H734.76C730.96 694.4 729.56 692.2 729.56 689C729.56 680.8 738.16 666.2 739.56 661.8C739.76 661.4 739.76 660.8 739.76 660.2C739.76 658.4 738.96 656.6 737.36 656.6C737.16 656.6 736.76 656.8 736.56 656.8C735.56 657 734.56 658.2 733.76 658.2C733.56 658.2 733.56 658.2 733.36 658C731.36 654.6 726.96 652.6 722.36 652.6C718.56 652.6 714.36 654 711.16 656.8C705.56 661.8 700.96 667.6 697.76 674.2C696.76 676.6 695.96 678.8 695.16 681.2C694.96 681.8 694.76 682.4 694.76 683C694.76 685.8 697.36 687.6 699.76 687.6C700.36 687.6 700.76 687.6 701.36 687.4ZM706.96 674.4C709.16 670.4 715.56 663.4 719.96 661.2C720.96 660.6 721.96 660.4 722.76 660.4C724.36 660.4 725.96 661.2 727.16 663.2C720.16 670 715.56 672.8 707.36 677.8C706.96 678 706.56 678.2 706.36 678.2C706.16 678.2 705.96 678 705.96 677.4C705.96 676.4 706.76 674.6 706.96 674.4ZM735.082 588C767.682 582.2 808.482 582.6 839.082 581C841.082 581 842.082 581.2 842.082 582.2C842.082 582.8 841.882 583.6 841.082 584.8C823.482 614.4 770.282 716.6 762.682 750C762.082 752.2 761.882 754 761.882 755.6C761.882 759.8 763.682 761.4 765.682 761.4C767.682 761.4 769.882 759.6 770.682 757.8C770.882 757.4 770.882 757.2 770.882 757C770.882 755.2 768.282 755.2 767.082 754.2C767.282 752.8 767.482 751 767.882 749.6C780.282 707.2 827.082 625.6 849.282 585.2C850.282 583.6 852.482 580.6 855.482 580.6C865.682 580.2 913.082 579.6 952.882 579.6C979.282 579.6 1002.28 579.8 1009.28 580.4C1010.28 580.6 1014.68 582.4 1016.08 582.4H1016.28C1016.48 582.4 1018.28 581 1018.28 579.6C1018.28 578.8 1017.48 578 1015.28 577.6C1010.28 577.2 1003.88 577 998.882 576.8C979.682 576.2 912.882 574.8 877.082 574.8C869.482 574.8 863.282 574.8 859.282 575C857.882 575 857.282 574.8 857.282 574.2C857.282 573.6 857.682 573 858.282 572C862.482 565.4 873.282 549.6 877.682 542C879.082 540 880.482 537.8 880.482 536.2C880.482 535.6 880.282 535.2 879.882 534.8C878.282 533.4 876.682 532.8 875.082 532.8C872.882 532.8 870.882 534.2 869.282 536C865.282 540.4 850.882 566.8 848.282 571.4C846.882 574 846.282 575 843.082 575.2C821.882 575.8 778.282 578 757.282 578.8H746.282C740.482 578.8 735.082 579.2 729.482 581.2C725.682 582.4 724.682 584 724.682 585.4C724.682 585.8 724.882 586.4 725.082 586.8C725.682 587.8 726.282 588.6 729.082 588.6C730.482 588.6 732.482 588.4 735.082 588ZM845.809 704.4C870.209 699.2 898.009 680 917.609 665.8C918.809 665 919.209 664.4 919.209 664.2C919.209 663.8 918.809 663.8 918.609 663.8C918.409 663.8 918.009 663.8 917.809 664C912.609 667.6 907.409 671.4 902.209 674.8C891.209 681.8 858.009 699.4 845.209 700.8H844.009C840.209 700.8 838.809 698.2 838.809 694.6C838.809 691 840.409 686.8 842.009 684C846.809 676.2 852.209 668.6 857.209 661C858.209 659.6 859.609 658.4 860.009 657C860.209 656.6 860.209 656 860.209 655.4C860.209 653.6 859.209 652 857.209 652C855.609 652 853.609 653 850.809 655.8C842.209 664.6 832.409 680.2 832.209 693.2V693.6C832.209 700.6 836.009 704.8 842.409 704.8C843.409 704.8 844.609 704.6 845.809 704.4ZM868.209 642.8C873.409 641.2 875.809 639 875.809 637C875.809 636 874.809 635 873.009 634.4C871.409 633.8 870.009 633.6 868.609 633.6C864.209 633.6 862.209 636.4 862.209 639C862.209 641.2 863.609 643.2 866.209 643.2C866.809 643.2 867.409 643 868.209 642.8ZM978.227 655.8C970.627 670.4 964.627 679 958.427 695.4C958.027 696.6 956.827 698.8 956.827 700.6C956.827 702 957.427 703.2 958.827 703.8C959.427 704.2 960.027 704.2 960.627 704.2C962.827 704.2 964.027 701.8 965.027 700C975.027 681.6 975.827 678.8 993.027 664.6C996.227 662 998.027 660.6 999.227 660.6C1000.23 660.6 1000.43 661.8 1000.43 664C1000.43 666.2 1000.23 669.2 1000.23 672.8C1000.23 674.4 1000.23 676 1000.43 677.8C1001.03 687.6 1007.63 693.8 1017.23 693.8H1018.23C1032.63 693.2 1058.63 676 1068.83 666C1069.03 665.8 1069.03 665.6 1069.03 665.4C1069.03 664.8 1068.63 663.8 1067.83 663.8C1067.83 663.8 1067.63 664 1067.43 664C1059.03 671.6 1034.43 689.2 1018.03 690H1017.23C1006.23 690 1005.23 679.4 1005.23 670.2V664.2C1005.23 660.2 1004.23 655.8 1000.23 655.8C999.627 655.8 998.827 656 998.027 656.2C993.427 657.6 986.627 664 982.227 667.4C982.427 665.6 983.227 664.6 983.827 663.6C985.427 660.4 987.027 657.4 988.627 654C989.227 652.8 989.627 651.4 989.627 650.2C989.627 649 989.227 647.8 988.227 646.6C987.227 645.6 986.427 645.4 985.427 645.4C983.827 645.4 982.427 646 981.027 646.6C975.427 648.8 969.627 651.2 964.027 653.4C957.027 656.2 950.027 657.6 942.627 657.6C940.827 657.6 939.027 657.6 937.227 657.4H936.227C935.627 657.4 935.027 657.2 934.827 656.4C935.227 655.8 936.027 655 936.427 654.2C937.027 653.6 937.227 652.8 937.227 652.2C937.227 650.6 936.027 649.4 934.227 649.4C933.827 649.4 933.627 649.6 933.227 649.6C924.027 651.6 903.427 683.6 899.427 694.8C898.627 696.8 898.427 698.8 898.427 700.2C898.427 704.4 900.627 706.6 903.827 706.6C905.827 706.6 908.427 705.6 910.827 703.8C918.227 698.4 924.427 692 929.227 684.2C932.227 679.6 934.027 674.6 934.027 669.4C934.027 667.4 933.827 665.4 933.227 663.4C933.227 663.2 933.427 662.8 933.627 662C936.827 662.6 940.027 662.8 943.227 662.8C955.227 662.8 966.627 659 978.227 654.4V655.8ZM928.027 673.8C925.627 682.8 916.027 692.2 908.227 697.4C909.427 691.8 923.027 670 928.027 665.6C928.627 666.8 928.827 667.8 928.827 669C928.827 670.6 928.427 672.2 928.027 673.8Z" fill="rgba(255, 255, 255, 0.3)"/>
</svg>
