<svg width="1280" height="1280" viewBox="0 0 1280 1280" fill="none" xmlns="http://www.w3.org/2000/svg">
<g clip-path="url(#clip0_2318_171226)">
<path d="M268.568 267.4C237.168 268.8 211.368 276.2 184.168 292.6C174.768 298.4 165.368 304.2 157.168 311.6C155.168 313.4 152.368 315.8 152.368 318.4C152.368 319.2 152.568 320 152.968 320.8C153.768 322.4 155.168 323 156.768 323C160.168 323 164.568 320.2 166.568 319.2C172.168 316.2 166.568 313.4 173.368 308.4C203.168 287.2 234.968 275 272.168 275H272.568C294.368 275 312.168 288.6 319.368 309.4C323.368 321.4 325.368 335.4 325.368 349.6C325.368 364 323.368 378.6 319.368 390.8C311.968 413.8 300.968 435 287.368 455C268.368 483 244.568 506.2 218.368 527.4C198.968 543 176.968 553.2 152.768 559.2C147.168 560.6 141.568 561.4 135.768 561.4C116.568 561.4 98.568 552.8 95.168 530.8C94.568 526.8 94.168 522.8 94.168 518.8C94.168 509.2 96.168 499.8 100.368 490.8C118.168 453.2 150.368 428.4 184.168 406.2C184.568 406 184.968 405.8 186.168 405.4C176.768 428.2 142.168 510.6 142.168 533.2V534C142.168 535 142.968 535.8 143.968 535.8C144.768 535.8 145.768 535 145.968 532.8C149.768 503 186.368 423.4 200.768 397.4C201.568 396 202.368 394.6 203.968 393.8C215.168 387.2 226.368 380.4 238.968 376.8C240.568 376.4 241.368 375.6 241.368 375.2C241.368 374.6 240.568 374 239.768 374C239.568 374 239.368 374.2 239.168 374.2C227.168 377.2 219.768 381.2 208.768 387.2C208.168 387.4 207.768 388 206.968 388C206.768 388 206.568 388 206.168 387.8C206.968 386.6 207.368 385.6 207.968 384.4L247.568 317.4C248.968 315 251.768 310.6 251.768 307.4C251.768 306.2 251.368 305.2 250.368 304.6C249.768 304.2 249.368 304.2 248.768 304.2C245.768 304.2 242.768 308.6 240.768 311.2C222.368 335.2 207.168 361.4 193.768 388.6C192.168 392 190.968 396 188.768 398.6C186.168 401.4 182.568 402.8 179.368 404.8C144.368 427 114.368 451 95.568 489.2C90.968 498.4 88.968 508 88.968 517.6C88.968 524 89.768 530.4 91.568 537C94.968 550.2 103.368 559 116.368 563.2C122.368 565.2 128.568 566.2 134.968 566.2C138.168 566.2 141.368 566 144.568 565.4C184.768 558.8 213.768 538.8 243.168 512.2C272.168 485.8 296.168 455.6 313.768 420.4C325.168 397.4 331.768 373.8 331.768 348.6C331.768 345 331.568 341.4 331.368 337.8C330.568 326.8 328.768 316 324.968 305.6C316.568 281.4 291.368 267.4 270.768 267.4H268.568ZM333.788 483.6C354.388 482.6 395.588 458.4 409.988 445.8C410.588 445.2 410.788 444.8 410.788 444.6C410.788 444.2 410.588 444 410.388 444C409.988 444 409.588 444.2 409.188 444.6C393.788 456.4 361.788 473.8 342.188 478.6C339.788 479.2 337.588 479.4 335.388 479.4C327.188 479.4 322.588 475 322.588 468.6C322.588 465.4 323.588 461.8 325.988 458.2C327.388 458.6 328.588 458.8 329.788 458.8C331.788 458.8 333.788 458.2 335.588 457.2C341.588 453.8 347.788 450.4 353.388 446.6C356.188 444.8 358.188 441.8 360.188 439C361.388 437.4 361.988 435.4 361.988 433.4C361.988 430 359.788 427 355.588 427C353.988 427 352.188 427.2 350.188 428.2C335.788 434.2 325.588 444.4 319.788 458.6C318.588 461.4 317.988 464.6 317.988 467.8C317.988 475.8 322.188 483.6 332.588 483.6H333.788ZM351.788 434.8C350.788 439.8 337.988 450 329.388 452.6C335.788 444.6 342.188 437.8 351.788 434.8ZM410.243 476.8C421.843 470 435.443 449.6 445.243 438.4C446.043 439.2 446.443 439.8 446.443 440.4C446.443 441.4 445.843 442 445.443 442.8C435.443 465.4 425.043 488 419.043 512C417.843 516.8 417.443 520.4 417.443 523C417.443 528 419.043 529.8 420.443 529.8C421.243 529.8 422.043 529 422.043 528V527.4C421.643 526.2 421.643 524.8 421.643 523.6C421.643 521 422.243 518.6 422.843 516C424.443 510.8 425.843 505.4 427.843 500.4C448.243 448 474.243 398.8 508.843 354.4C510.643 352.2 512.043 349.8 513.643 347.4C514.043 346.6 514.243 345.8 514.243 345.2C514.243 343.4 512.843 342.4 510.643 342.4C509.843 342.4 509.243 342.4 508.443 342.6C507.243 343 506.243 344.2 505.443 345C489.043 363.4 479.043 380.6 466.443 401.6C461.043 410.2 454.643 418.2 448.443 426.8C444.443 423 440.843 421.2 437.243 421.2C434.643 421.2 431.643 422.4 428.443 424.4C416.043 432 405.043 448.6 399.643 462C398.443 465 397.843 467.8 397.843 470C397.843 475.4 400.843 478.4 404.843 478.4C406.643 478.4 408.443 477.8 410.243 476.8ZM409.643 466C415.243 454.4 422.843 444.4 433.043 436.4C435.243 434.6 436.443 434.2 437.643 434.2C438.643 434.2 439.643 434.6 441.643 434.8C430.843 447 422.043 459.4 408.843 469C409.243 467.2 409.243 466.6 409.643 466ZM486.238 484.4C510.638 479.2 538.438 460 558.038 445.8C559.238 445 559.638 444.4 559.638 444.2C559.638 443.8 559.238 443.8 559.038 443.8C558.838 443.8 558.438 443.8 558.238 444C553.038 447.6 547.838 451.4 542.638 454.8C531.638 461.8 498.438 479.4 485.638 480.8H484.438C480.638 480.8 479.238 478.2 479.238 474.6C479.238 471 480.838 466.8 482.438 464C487.238 456.2 492.638 448.6 497.638 441C498.638 439.6 500.038 438.4 500.438 437C500.638 436.6 500.638 436 500.638 435.4C500.638 433.6 499.638 432 497.638 432C496.038 432 494.038 433 491.238 435.8C482.638 444.6 472.838 460.2 472.638 473.2V473.6C472.638 480.6 476.438 484.8 482.838 484.8C483.838 484.8 485.038 484.6 486.238 484.4ZM508.638 422.8C513.838 421.2 516.238 419 516.238 417C516.238 416 515.238 415 513.438 414.4C511.838 413.8 510.438 413.6 509.038 413.6C504.638 413.6 502.638 416.4 502.638 419C502.638 421.2 504.038 423.2 506.638 423.2C507.238 423.2 507.838 423 508.638 422.8ZM572.857 488.6C592.057 482.4 620.857 459.8 634.657 445.4C635.057 445 635.057 444.8 635.057 444.6C635.057 444.2 634.857 444 634.657 444C634.457 444 634.057 444.2 633.857 444.4C618.257 457.2 592.457 478.6 572.857 485C570.257 485.8 567.857 486.2 565.257 486.2C559.657 486.2 554.857 483.6 554.857 476.8V475.8C555.457 462 569.657 441.6 579.857 433C580.657 432.2 582.057 431.8 583.457 431C584.057 433.6 584.257 435.4 584.857 437.4C585.257 439 586.257 439.8 587.457 439.8C588.257 439.8 589.057 439.6 589.857 438.8C592.057 436.8 593.057 433.8 593.057 431C593.057 425.8 589.657 420.8 583.857 420.8C580.057 420.8 575.257 423 569.857 429.2C559.857 440.4 548.257 457.4 548.257 473.4V475.6C548.857 485 554.857 490.2 563.657 490.2C566.457 490.2 569.457 489.6 572.857 488.6ZM630.462 467.4C637.262 465.2 650.862 455.8 657.862 451.2C655.662 455.6 653.662 461.8 653.662 467.2C653.662 473 656.262 477.8 664.062 477.8H665.262C683.062 477 716.862 457.6 729.462 444.8C729.662 444.6 729.662 444.4 729.662 444.4C729.662 444.2 729.662 444.2 729.462 444.2H729.262C726.262 445.4 691.262 474.4 664.062 474.4H663.862C660.062 474.4 658.662 472.2 658.662 469C658.662 460.8 667.262 446.2 668.662 441.8C668.862 441.4 668.862 440.8 668.862 440.2C668.862 438.4 668.062 436.6 666.462 436.6C666.262 436.6 665.862 436.8 665.662 436.8C664.662 437 663.662 438.2 662.862 438.2C662.662 438.2 662.662 438.2 662.462 438C660.462 434.6 656.062 432.6 651.462 432.6C647.662 432.6 643.462 434 640.262 436.8C634.662 441.8 630.062 447.6 626.862 454.2C625.862 456.6 625.062 458.8 624.262 461.2C624.062 461.8 623.862 462.4 623.862 463C623.862 465.8 626.462 467.6 628.862 467.6C629.462 467.6 629.862 467.6 630.462 467.4ZM636.062 454.4C638.262 450.4 644.662 443.4 649.062 441.2C650.062 440.6 651.062 440.4 651.862 440.4C653.462 440.4 655.062 441.2 656.262 443.2C649.262 450 644.662 452.8 636.462 457.8C636.062 458 635.662 458.2 635.462 458.2C635.262 458.2 635.062 458 635.062 457.4C635.062 456.4 635.862 454.6 636.062 454.4ZM664.184 368C696.784 362.2 737.584 362.6 768.184 361C770.184 361 771.184 361.2 771.184 362.2C771.184 362.8 770.984 363.6 770.184 364.8C752.584 394.4 699.384 496.6 691.784 530C691.184 532.2 690.984 534 690.984 535.6C690.984 539.8 692.784 541.4 694.784 541.4C696.784 541.4 698.984 539.6 699.784 537.8C699.984 537.4 699.984 537.2 699.984 537C699.984 535.2 697.384 535.2 696.184 534.2C696.384 532.8 696.584 531 696.984 529.6C709.384 487.2 756.184 405.6 778.384 365.2C779.384 363.6 781.584 360.6 784.584 360.6C794.784 360.2 842.184 359.6 881.984 359.6C908.384 359.6 931.384 359.8 938.384 360.4C939.384 360.6 943.784 362.4 945.184 362.4H945.384C945.584 362.4 947.384 361 947.384 359.6C947.384 358.8 946.584 358 944.384 357.6C939.384 357.2 932.984 357 927.984 356.8C908.784 356.2 841.984 354.8 806.184 354.8C798.584 354.8 792.384 354.8 788.384 355C786.984 355 786.384 354.8 786.384 354.2C786.384 353.6 786.784 353 787.384 352C791.584 345.4 802.384 329.6 806.784 322C808.184 320 809.584 317.8 809.584 316.2C809.584 315.6 809.384 315.2 808.984 314.8C807.384 313.4 805.784 312.8 804.184 312.8C801.984 312.8 799.984 314.2 798.384 316C794.384 320.4 779.984 346.8 777.384 351.4C775.984 354 775.384 355 772.184 355.2C750.984 355.8 707.384 358 686.384 358.8H675.384C669.584 358.8 664.184 359.2 658.584 361.2C654.784 362.4 653.784 364 653.784 365.4C653.784 365.8 653.984 366.4 654.184 366.8C654.784 367.8 655.384 368.6 658.184 368.6C659.584 368.6 661.584 368.4 664.184 368ZM774.91 484.4C799.31 479.2 827.11 460 846.71 445.8C847.91 445 848.31 444.4 848.31 444.2C848.31 443.8 847.91 443.8 847.71 443.8C847.51 443.8 847.11 443.8 846.91 444C841.71 447.6 836.51 451.4 831.31 454.8C820.31 461.8 787.11 479.4 774.31 480.8H773.11C769.31 480.8 767.91 478.2 767.91 474.6C767.91 471 769.51 466.8 771.11 464C775.91 456.2 781.31 448.6 786.31 441C787.31 439.6 788.71 438.4 789.11 437C789.31 436.6 789.31 436 789.31 435.4C789.31 433.6 788.31 432 786.31 432C784.71 432 782.71 433 779.91 435.8C771.31 444.6 761.51 460.2 761.31 473.2V473.6C761.31 480.6 765.11 484.8 771.51 484.8C772.51 484.8 773.71 484.6 774.91 484.4ZM797.31 422.8C802.51 421.2 804.91 419 804.91 417C804.91 416 803.91 415 802.11 414.4C800.51 413.8 799.11 413.6 797.71 413.6C793.31 413.6 791.31 416.4 791.31 419C791.31 421.2 792.71 423.2 795.31 423.2C795.91 423.2 796.51 423 797.31 422.8ZM907.329 435.8C899.729 450.4 893.729 459 887.529 475.4C887.129 476.6 885.929 478.8 885.929 480.6C885.929 482 886.529 483.2 887.929 483.8C888.529 484.2 889.129 484.2 889.729 484.2C891.929 484.2 893.129 481.8 894.129 480C904.129 461.6 904.929 458.8 922.129 444.6C925.329 442 927.129 440.6 928.329 440.6C929.329 440.6 929.529 441.8 929.529 444C929.529 446.2 929.329 449.2 929.329 452.8C929.329 454.4 929.329 456 929.529 457.8C930.129 467.6 936.729 473.8 946.329 473.8H947.329C961.729 473.2 987.729 456 997.929 446C998.129 445.8 998.129 445.6 998.129 445.4C998.129 444.8 997.729 443.8 996.929 443.8C996.929 443.8 996.729 444 996.529 444C988.129 451.6 963.529 469.2 947.129 470H946.329C935.329 470 934.329 459.4 934.329 450.2V444.2C934.329 440.2 933.329 435.8 929.329 435.8C928.729 435.8 927.929 436 927.129 436.2C922.529 437.6 915.729 444 911.329 447.4C911.529 445.6 912.329 444.6 912.929 443.6C914.529 440.4 916.129 437.4 917.729 434C918.329 432.8 918.729 431.4 918.729 430.2C918.729 429 918.329 427.8 917.329 426.6C916.329 425.6 915.529 425.4 914.529 425.4C912.929 425.4 911.529 426 910.129 426.6C904.529 428.8 898.729 431.2 893.129 433.4C886.129 436.2 879.129 437.6 871.729 437.6C869.929 437.6 868.129 437.6 866.329 437.4H865.329C864.729 437.4 864.129 437.2 863.929 436.4C864.329 435.8 865.129 435 865.529 434.2C866.129 433.6 866.329 432.8 866.329 432.2C866.329 430.6 865.129 429.4 863.329 429.4C862.929 429.4 862.729 429.6 862.329 429.6C853.129 431.6 832.529 463.6 828.529 474.8C827.729 476.8 827.529 478.8 827.529 480.2C827.529 484.4 829.729 486.6 832.929 486.6C834.929 486.6 837.529 485.6 839.929 483.8C847.329 478.4 853.529 472 858.329 464.2C861.329 459.6 863.129 454.6 863.129 449.4C863.129 447.4 862.929 445.4 862.329 443.4C862.329 443.2 862.529 442.8 862.729 442C865.929 442.6 869.129 442.8 872.329 442.8C884.329 442.8 895.729 439 907.329 434.4V435.8ZM857.129 453.8C854.729 462.8 845.129 472.2 837.329 477.4C838.529 471.8 852.129 450 857.129 445.6C857.729 446.8 857.929 447.8 857.929 449C857.929 450.6 857.529 452.2 857.129 453.8ZM1005.59 368C1038.19 362.2 1078.99 362.6 1109.59 361C1111.59 361 1112.59 361.2 1112.59 362.2C1112.59 362.8 1112.39 363.6 1111.59 364.8C1093.99 394.4 1040.79 496.6 1033.19 530C1032.59 532.2 1032.39 534 1032.39 535.6C1032.39 539.8 1034.19 541.4 1036.19 541.4C1038.19 541.4 1040.39 539.6 1041.19 537.8C1041.39 537.4 1041.39 537.2 1041.39 537C1041.39 535.2 1038.79 535.2 1037.59 534.2C1037.79 532.8 1037.99 531 1038.39 529.6C1050.79 487.2 1097.59 405.6 1119.79 365.2C1120.79 363.6 1122.99 360.6 1125.99 360.6C1136.19 360.2 1183.59 359.6 1223.39 359.6C1249.79 359.6 1272.79 359.8 1279.79 360.4C1280.79 360.6 1285.19 362.4 1286.59 362.4H1286.79C1286.99 362.4 1288.79 361 1288.79 359.6C1288.79 358.8 1287.99 358 1285.79 357.6C1280.79 357.2 1274.39 357 1269.39 356.8C1250.19 356.2 1183.39 354.8 1147.59 354.8C1139.99 354.8 1133.79 354.8 1129.79 355C1128.39 355 1127.79 354.8 1127.79 354.2C1127.79 353.6 1128.19 353 1128.79 352C1132.99 345.4 1143.79 329.6 1148.19 322C1149.59 320 1150.99 317.8 1150.99 316.2C1150.99 315.6 1150.79 315.2 1150.39 314.8C1148.79 313.4 1147.19 312.8 1145.59 312.8C1143.39 312.8 1141.39 314.2 1139.79 316C1135.79 320.4 1121.39 346.8 1118.79 351.4C1117.39 354 1116.79 355 1113.59 355.2C1092.39 355.8 1048.79 358 1027.79 358.8H1016.79C1010.99 358.8 1005.59 359.2 999.99 361.2C996.19 362.4 995.19 364 995.19 365.4C995.19 365.8 995.39 366.4 995.59 366.8C996.19 367.8 996.79 368.6 999.59 368.6C1000.99 368.6 1002.99 368.4 1005.59 368ZM1111.32 487.6C1113.32 487.6 1115.32 486.6 1116.92 485.4C1128.12 478 1133.72 466.4 1139.32 454.4C1142.52 456.2 1147.52 456.8 1152.72 456.8C1154.12 456.8 1155.52 456.6 1156.92 456.6C1170.72 455.8 1186.32 450.8 1193.12 447.4C1194.72 446.8 1195.32 446 1195.32 445.6C1195.32 445.2 1194.92 445 1194.32 445C1193.92 445 1193.32 445.2 1192.72 445.4C1182.92 450 1168.32 454.6 1155.32 454.6C1149.92 454.6 1144.92 453.8 1140.52 452C1141.12 449.6 1142.12 445.4 1142.52 443.6C1142.72 442.4 1142.92 441.2 1142.92 440C1142.92 432.8 1138.32 430 1133.52 430C1130.32 430 1126.92 431.2 1124.52 433.2C1114.52 441 1105.72 458.2 1103.52 471C1103.32 472 1103.32 473.2 1103.32 474.4C1103.32 476.6 1103.52 479 1104.12 481.2C1104.72 484.4 1108.12 487.6 1111.12 487.6H1111.32ZM1133.12 440C1133.32 438.2 1134.92 437.4 1136.32 437.4C1137.12 437.4 1138.12 437.8 1138.52 438.6C1138.52 441.4 1137.32 444.4 1136.32 447.6C1134.92 446.2 1133.12 443.4 1133.12 440.8V440ZM1108.72 477.4C1110.32 467 1120.92 452 1129.12 442.8C1130.72 447 1131.92 449.2 1134.72 451.8C1131.72 460.8 1120.72 476.8 1113.72 482C1112.12 483 1111.12 483.6 1110.32 483.6C1108.92 483.6 1108.52 482.2 1108.52 480.4C1108.52 479.6 1108.52 478.4 1108.72 477.4ZM187.07 714C190.87 713.8 191.87 712.2 194.87 710C215.47 691.2 233.47 672.6 258.07 656C258.47 655.6 258.67 655 258.67 654.6C258.67 653.6 257.87 652.8 256.67 652.8C256.07 652.8 255.47 653 254.67 653.4C230.87 669.8 209.67 688.8 189.67 706C189.47 706.2 189.27 706.2 189.07 706.2C188.47 706.2 188.07 706 188.07 705.2V705C189.67 692.6 198.27 673.8 202.47 660.8C202.67 660.4 202.67 660 202.67 659.6C202.67 657.4 200.67 655.6 198.67 655.6C197.87 655.6 196.87 655.8 196.27 656.6C188.67 664.2 181.27 688.8 178.67 699.8C178.47 701.2 178.27 702.6 178.27 704C178.27 709 180.07 714 186.87 714H187.07ZM264.251 687.4C271.051 685.2 284.651 675.8 291.651 671.2C289.451 675.6 287.451 681.8 287.451 687.2C287.451 693 290.051 697.8 297.851 697.8H299.051C316.851 697 350.651 677.6 363.251 664.8C363.451 664.6 363.451 664.4 363.451 664.4C363.451 664.2 363.451 664.2 363.251 664.2H363.051C360.051 665.4 325.051 694.4 297.851 694.4H297.651C293.851 694.4 292.451 692.2 292.451 689C292.451 680.8 301.051 666.2 302.451 661.8C302.651 661.4 302.651 660.8 302.651 660.2C302.651 658.4 301.851 656.6 300.251 656.6C300.051 656.6 299.651 656.8 299.451 656.8C298.451 657 297.451 658.2 296.651 658.2C296.451 658.2 296.451 658.2 296.251 658C294.251 654.6 289.851 652.6 285.251 652.6C281.451 652.6 277.251 654 274.051 656.8C268.451 661.8 263.851 667.6 260.651 674.2C259.651 676.6 258.851 678.8 258.051 681.2C257.851 681.8 257.651 682.4 257.651 683C257.651 685.8 260.251 687.6 262.651 687.6C263.251 687.6 263.651 687.6 264.251 687.4ZM269.851 674.4C272.051 670.4 278.451 663.4 282.851 661.2C283.851 660.6 284.851 660.4 285.651 660.4C287.251 660.4 288.851 661.2 290.051 663.2C283.051 670 278.451 672.8 270.251 677.8C269.851 678 269.451 678.2 269.251 678.2C269.051 678.2 268.851 678 268.851 677.4C268.851 676.4 269.651 674.6 269.851 674.4ZM364.173 736.4C387.573 736.4 434.173 679.4 448.173 667.4C449.173 666.4 448.773 666.8 450.173 665.2V665C450.173 664.4 449.773 664 449.173 664H448.973C447.573 664.8 446.973 665 445.773 666C438.773 672 388.173 731.8 364.773 731.8H364.173C357.173 731.6 354.973 725.2 354.973 719C354.973 718 355.173 717.2 355.173 716.4C357.173 695.2 363.573 677.8 369.373 663.2C370.173 661.4 372.573 659.4 374.773 658C400.773 640 429.373 600.4 441.573 579C444.973 573.4 453.773 557.4 453.773 546.2C453.773 542.4 452.773 539.2 449.973 537.2C448.373 536 446.173 535.4 443.973 535.4C440.773 535.4 437.373 536.4 433.973 539C430.773 541.4 427.973 544.2 425.173 547.2C398.573 576.8 383.973 606.8 370.373 641.4C363.573 659.2 349.373 698 349.373 717.6C349.373 726.6 352.173 735.4 362.773 736.4H364.173ZM375.173 650.8C375.773 649.2 377.773 644.8 378.573 643.2C392.973 613.2 407.973 581.4 429.173 556C431.973 552.6 434.773 549.4 437.773 546.2C440.773 543.2 443.373 542 445.373 542C445.973 542 446.373 542 446.773 542.2C448.573 543 449.173 544.8 449.173 547.2C449.173 556 439.973 572.8 437.773 576.8C422.173 604.4 401.973 633 376.973 651.6C376.773 651.8 376.373 652 375.973 652C375.573 652 375.173 651.6 375.173 651.2V650.8ZM429.72 705C430.12 709.8 433.92 713.8 439.72 714.2H440.92C459.92 714.2 476.92 683.4 489.52 671.8C487.92 676 485.12 685.2 485.12 692.8C485.12 699 486.92 704.2 492.52 705H494.32C514.72 705 544.72 680 562.32 667C563.12 666.4 563.52 665.8 563.52 665.2C563.52 664.4 563.12 664 562.32 664C561.72 664 561.12 664.2 560.12 665C543.12 678.2 511.52 700.4 496.52 700.4H496.32C492.92 700.2 491.52 698.4 491.52 695.6C491.52 688.6 499.52 675.8 501.32 669.6C502.12 667 503.12 664.2 503.12 661.8C503.12 660.2 502.52 658.8 501.12 658C500.32 657.6 499.72 657.4 498.92 657.4C496.12 657.4 493.52 660 491.12 662C486.52 666.2 457.12 708.6 440.92 708.6C438.12 708.4 436.32 707.8 435.72 704V703.6C435.72 698.4 445.92 681 453.92 669C456.52 664.6 459.72 661.6 462.12 658.2C462.72 657.4 463.12 656.4 463.12 655.4C463.12 653.4 461.92 651.6 459.92 651.6C458.52 651.6 456.72 652.6 454.72 654.8C450.72 659.4 429.72 689 429.72 704.2V705ZM566.601 703.6C587.201 702.6 628.401 678.4 642.801 665.8C643.401 665.2 643.601 664.8 643.601 664.6C643.601 664.2 643.401 664 643.201 664C642.801 664 642.401 664.2 642.001 664.6C626.601 676.4 594.601 693.8 575.001 698.6C572.601 699.2 570.401 699.4 568.201 699.4C560.001 699.4 555.401 695 555.401 688.6C555.401 685.4 556.401 681.8 558.801 678.2C560.201 678.6 561.401 678.8 562.601 678.8C564.601 678.8 566.601 678.2 568.401 677.2C574.401 673.8 580.601 670.4 586.201 666.6C589.001 664.8 591.001 661.8 593.001 659C594.201 657.4 594.801 655.4 594.801 653.4C594.801 650 592.601 647 588.401 647C586.801 647 585.001 647.2 583.001 648.2C568.601 654.2 558.401 664.4 552.601 678.6C551.401 681.4 550.801 684.6 550.801 687.8C550.801 695.8 555.001 703.6 565.401 703.6H566.601ZM584.601 654.8C583.601 659.8 570.801 670 562.201 672.6C568.601 664.6 575.001 657.8 584.601 654.8ZM644.255 756.2C666.055 747.6 685.655 726.2 694.255 704.4C696.255 699.2 696.855 695 696.855 691.8C696.855 686 695.055 682.8 695.055 681.6C695.055 681.2 695.055 681 695.455 680.8C708.055 675.4 742.455 667.8 754.855 665.8C757.055 665.4 757.855 665 757.855 664.6C757.855 664.2 757.055 664 755.655 664C754.855 664 754.055 664 753.055 664.2C738.855 666 706.055 673 692.655 677.8C689.455 672.2 679.255 672 669.055 671.2C659.055 670.2 649.055 668.6 648.655 663.8V663.4C648.655 652.6 676.655 632.6 687.655 632.6C689.655 632.6 691.055 633.2 691.655 634.6C693.455 638.2 695.255 639.4 697.055 639.4C700.255 639.4 702.655 634.4 702.655 631.4C702.655 630.8 702.655 630.4 702.455 630C701.255 626 696.255 622.2 692.055 621.6C691.655 621.6 691.055 621.4 690.455 621.4C676.455 621.4 641.655 647.8 641.655 664.2C641.655 665 641.855 666 642.055 666.8C645.855 680.2 685.855 676 687.455 679.8C663.255 688.4 634.855 704.4 621.055 728C617.255 734.4 615.455 740.4 615.455 745.2C615.455 753.8 621.055 759.2 630.455 759.2C634.455 759.2 639.055 758.2 644.255 756.2ZM624.055 729.4C635.855 709.2 668.855 690.2 690.055 683.4C691.655 686 692.255 688.6 692.255 691.2C692.255 693 692.055 695 691.455 696.8C684.855 719.4 663.255 744.4 641.255 752.6C637.055 754.2 633.055 755 629.855 755C623.055 755 618.655 751.6 618.655 745C618.655 741 620.255 735.8 624.055 729.4ZM1117.76 561C1119.56 558.8 1120.96 556.4 1122.56 554C1123.16 553.2 1123.36 552.4 1123.36 551.8C1123.36 550 1121.76 549 1119.56 549C1118.96 549 1118.16 549 1117.36 549.2C1116.16 549.6 1115.16 550.8 1114.36 551.8C1097.96 570 1080.16 601 1067.56 621.8C1062.16 630.4 1055.76 638.4 1049.56 647.2C1045.56 643.4 1041.96 641.6 1038.36 641.6C1035.76 641.6 1032.76 642.6 1029.56 644.6C1016.96 652.4 1006.16 669 1000.76 682.4C1000.36 683.2 999.955 684.2 999.755 685C987.755 691 975.955 695.4 968.155 696.4L967.955 696.2C966.955 696.4 965.955 696.6 964.955 696.6C964.155 696.6 963.355 696.4 962.755 696.4C960.755 696.2 958.755 695.6 957.155 694.8C953.755 693 952.755 686.8 952.755 680C952.755 671.8 953.955 662.8 953.955 657.8V656.8C953.955 652.4 951.355 649.4 947.955 649.4C946.955 649.4 945.755 649.6 944.555 650.4C937.555 654.4 908.155 694.4 899.555 701.6C899.555 699.4 900.155 697.8 901.155 696.2C905.555 688 922.355 652.2 925.355 644C925.755 643.4 925.955 642.6 925.955 642C925.955 641.2 925.755 640.4 925.155 640C924.755 639.8 923.755 638.8 922.355 638.8C920.955 639 918.955 640.2 917.155 641.8C902.955 652.8 871.155 694.4 849.155 694.4C845.355 694.4 842.755 692 842.755 687.6C842.755 685.8 843.155 683.4 844.355 680.8C848.555 671.4 858.555 656.2 859.955 652.6C860.155 652.2 860.155 651.8 860.155 651.2C860.155 649.4 859.155 647.4 857.355 647.4H856.755C855.755 647.8 849.355 658 848.355 658H848.155C846.555 655.2 844.355 653.8 841.955 653.8C838.955 653.8 835.355 656 831.955 660C830.955 661 817.155 684.2 815.955 691V692C815.955 694.4 817.755 696.2 820.355 696.2C821.355 696.2 822.555 695.8 823.555 695.2C828.155 692.6 837.755 676.4 843.555 671.2C841.355 675.6 839.355 681.8 839.355 687.2C839.355 693.2 841.955 698 849.955 698H850.955C871.755 696 899.955 660.8 916.555 645.4C918.355 643.8 920.355 642 921.155 642C921.155 642 921.355 642 921.355 642.2C921.355 643.4 918.155 648 917.555 649C912.355 659.2 893.755 693.8 889.755 705.6C889.355 707.2 889.155 708.4 889.155 709.6C889.155 712.8 890.755 714.2 893.155 714.2C894.755 714.2 896.755 713.4 898.755 712C911.155 700.6 929.955 674.2 942.155 662.8C943.555 661.6 944.955 660.8 947.355 659C947.155 662.8 946.955 665.6 946.755 668.4C946.755 671.2 946.555 674.8 946.555 678.4C946.555 686.2 947.555 694.6 954.355 698C956.955 699.4 959.755 700 962.555 700C963.355 700 964.355 699.8 965.155 699.8C972.355 699.8 985.555 694.6 999.155 687.6C998.955 688.6 998.955 689.4 998.955 690.4C998.955 695.8 1001.96 698.8 1005.96 698.8C1007.56 698.8 1009.36 698.4 1011.16 697.2C1022.56 690.6 1036.96 669.6 1046.76 658.2C1047.76 657 1048.16 656.6 1048.56 656.6C1048.56 656.6 1048.76 656.8 1048.76 657C1048.76 658.2 1046.56 663 1046.56 663.2C1036.76 685.8 1023.96 707 1018.16 731C1016.76 736.6 1015.96 740.8 1015.96 743.8C1015.96 745.6 1016.36 746.8 1016.96 747.8C1017.76 749 1018.56 749.4 1019.16 749.4C1019.96 749.4 1020.56 748.8 1020.56 747.8C1020.56 747.6 1020.36 747.2 1020.36 747C1020.16 746.6 1020.16 746 1020.16 745.4C1020.16 738.8 1025.16 721.4 1026.76 717.4C1047.16 665.2 1083.16 605.4 1117.76 561ZM822.155 688.4C821.955 688.4 821.955 688.6 821.755 688.6C821.755 688.6 821.555 688.4 821.555 688.2C821.555 685.4 835.355 663 839.155 661C840.155 660.4 840.955 660.2 841.555 660.2C842.555 660.2 843.555 661 844.755 663C837.755 669.8 826.755 685.4 822.155 688.4ZM1010.56 692.4C1009.96 692.8 1009.36 693 1008.76 693C1006.56 693 1005.76 690 1005.76 687.8C1005.76 687.2 1005.76 686.6 1005.96 686.2C1006.36 685.4 1006.56 684.6 1007.16 683.6C1018.16 677.6 1028.76 671 1036.16 665.4C1028.36 675.2 1019.96 685.4 1010.56 692.4ZM1013.16 677.4C1011.76 678.4 1010.36 679 1008.96 680C1015.56 668.4 1029.36 650 1037.16 649.2H1037.56C1040.36 649.2 1043.16 650.8 1044.76 652.8V653.2C1044.76 657.2 1029.16 667.6 1013.16 677.4ZM240.24 928.6C259.44 922.4 288.24 899.8 302.04 885.4C302.44 885 302.44 884.8 302.44 884.6C302.44 884.2 302.24 884 302.04 884C301.84 884 301.44 884.2 301.24 884.4C285.64 897.2 259.84 918.6 240.24 925C237.64 925.8 235.24 926.2 232.64 926.2C227.04 926.2 222.24 923.6 222.24 916.8V915.8C222.84 902 237.04 881.6 247.24 873C248.04 872.2 249.44 871.8 250.84 871C251.44 873.6 251.64 875.4 252.24 877.4C252.64 879 253.64 879.8 254.84 879.8C255.64 879.8 256.44 879.6 257.24 878.8C259.44 876.8 260.44 873.8 260.44 871C260.44 865.8 257.04 860.8 251.24 860.8C247.44 860.8 242.64 863 237.24 869.2C227.24 880.4 215.64 897.4 215.64 913.4V915.6C216.24 925 222.24 930.2 231.04 930.2C233.84 930.2 236.84 929.6 240.24 928.6ZM297.645 927.6C299.645 927.6 301.645 926.6 303.245 925.4C314.445 918 320.045 906.4 325.645 894.4C328.845 896.2 333.845 896.8 339.045 896.8C340.445 896.8 341.845 896.6 343.245 896.6C357.045 895.8 372.645 890.8 379.445 887.4C381.045 886.8 381.645 886 381.645 885.6C381.645 885.2 381.245 885 380.645 885C380.245 885 379.645 885.2 379.045 885.4C369.245 890 354.645 894.6 341.645 894.6C336.245 894.6 331.245 893.8 326.845 892C327.445 889.6 328.445 885.4 328.845 883.6C329.045 882.4 329.245 881.2 329.245 880C329.245 872.8 324.645 870 319.845 870C316.645 870 313.245 871.2 310.845 873.2C300.845 881 292.045 898.2 289.845 911C289.645 912 289.645 913.2 289.645 914.4C289.645 916.6 289.845 919 290.445 921.2C291.045 924.4 294.445 927.6 297.445 927.6H297.645ZM319.445 880C319.645 878.2 321.245 877.4 322.645 877.4C323.445 877.4 324.445 877.8 324.845 878.6C324.845 881.4 323.645 884.4 322.645 887.6C321.245 886.2 319.445 883.4 319.445 880.8V880ZM295.045 917.4C296.645 907 307.245 892 315.445 882.8C317.045 887 318.245 889.2 321.045 891.8C318.045 900.8 307.045 916.8 300.045 922C298.445 923 297.445 923.6 296.645 923.6C295.245 923.6 294.845 922.2 294.845 920.4C294.845 919.6 294.845 918.4 295.045 917.4ZM463.96 914C462.56 915 460.96 916 459.36 916.8C458.76 917.2 458.16 917.6 457.36 917.6C456.96 917.6 456.36 917.4 455.96 917C455.56 916.6 455.56 916.4 455.56 916C455.56 915.4 455.76 914.6 455.96 914C456.96 911.2 457.96 908.6 458.96 905.8C461.16 900 463.76 894.2 465.56 888.2C465.96 886.6 466.36 885 466.36 883.4V882.4C466.16 879.4 464.36 877.6 462.16 877.6C461.36 877.6 460.76 877.6 459.96 878C458.36 878.6 457.16 879.2 455.96 880.2C446.56 886.2 438.56 894.4 430.96 902.6C428.96 904.4 425.56 908.8 424.16 908.8H423.96C423.56 908.2 423.36 907.4 423.36 906.4C423.36 895.4 443.96 858.2 443.96 853.4V853.2C443.56 850 441.36 848.2 438.36 848.2C437.76 848.2 437.16 848.2 436.36 848.4C418.96 851.4 397.16 885 381.56 900.4V899.8C381.56 896.8 384.36 892.2 385.96 889.6C388.36 885.2 390.96 880.8 393.36 876.2C393.96 875.4 394.16 874.4 394.16 873.6C394.16 872.8 393.96 872 393.16 871.2C392.36 870.4 391.36 870.2 390.56 870.2C389.96 870.2 389.16 870.4 388.56 870.6C386.96 871.4 385.56 872.8 384.36 874C376.36 888.2 369.16 908.6 361.96 925.2L361.36 927C361.16 927.8 360.96 928.6 360.96 929.2C360.96 931 361.76 932.4 363.36 933.2C363.96 933.6 364.76 933.8 365.36 933.8C366.76 933.8 367.96 933 369.36 931.6C371.16 929.8 372.76 927.8 374.36 925.8C390.56 904.4 407.76 879.4 427.56 861.4C429.36 859.8 431.16 858.4 432.76 857C433.16 856.6 433.56 856.4 433.96 856.4C434.36 856.4 434.56 856.4 434.96 856.8C435.36 857 435.56 857.4 435.56 858C435.56 858.2 435.36 858.6 435.36 858.8C435.16 859.6 434.76 860.4 434.36 861.2C431.56 867.4 428.76 873.6 426.16 879.8C422.16 888.8 418.96 898 417.16 907.6C416.96 908.2 416.96 909 416.96 909.6C416.96 911 417.36 912.4 418.96 913.2C419.96 913.6 420.96 913.8 421.96 913.8C423.16 913.8 424.36 913.4 425.36 912.6C426.76 911.4 427.96 910 429.36 908.8C437.16 900.4 445.76 890.6 455.56 884.4C456.76 883.6 458.96 881.6 460.16 881.6C460.36 881.6 460.56 881.6 460.76 881.8C460.96 882.2 460.96 882.6 460.96 883C460.96 884.8 459.56 887.4 459.16 888.6C456.96 893.6 454.76 898.8 452.56 904C451.16 907.4 449.96 911 449.76 914.8V915.8C449.76 920.4 451.56 922.6 454.96 922.6C456.16 922.6 457.56 922.4 458.96 921.8C469.16 918.4 495.56 885.2 508.16 875C508.76 874.4 509.36 873.8 510.76 873.8H511.16C509.56 877 508.16 879.6 506.76 882.2C500.16 894.6 493.36 907.2 487.36 920C486.76 921.4 486.36 922.4 486.36 923.2C486.36 924.4 486.96 925.4 487.96 926C488.56 926.4 488.96 926.6 489.56 926.6C490.76 926.6 492.16 925.6 493.36 923.6C493.76 923.2 493.96 923 494.16 922.4C502.76 910.4 511.96 898.8 523.56 889.6C524.56 888.8 525.36 887.8 526.76 887.6C526.76 887.8 526.96 888.2 526.96 888.4C526.96 889.2 526.56 889.8 526.36 890.4C524.56 895 522.56 899.4 521.36 904C520.76 905.6 520.56 907.2 520.56 909C520.56 910.4 520.76 911.8 521.36 913.4C522.36 916.2 523.76 917.4 525.76 917.4C526.96 917.4 528.16 917 529.36 916.2C531.16 915 532.56 913.6 534.16 912.2C539.76 907.4 545.16 902.4 550.76 897.4C552.16 896.2 553.56 894.8 555.76 894.2C555.96 895 556.16 895.8 556.16 896.4C556.16 897.4 555.96 898.2 555.96 899.2C555.96 902.8 556.76 906.2 557.96 909.4C559.76 914 562.16 915.6 566.76 915.6H568.16C570.16 915.6 572.16 915 574.16 914.2C578.36 912.6 583.56 910.2 587.56 908C593.36 904.6 607.76 893.2 612.36 888.6C613.56 887.4 614.96 886.8 615.56 885.2C615.76 885 615.76 884.6 615.76 884.4C615.76 884.2 615.56 884 615.36 884C615.16 884 614.96 884 614.56 884.2C602.76 894 590.76 905.4 572.96 911.8C571.16 912.4 569.76 912.8 568.56 912.8C565.56 912.8 563.56 911 562.36 907C561.76 905.2 561.36 903.2 561.36 901.2V894C561.16 890.4 559.36 888.4 556.96 888.4C555.76 888.4 554.36 888.8 552.96 889.6C551.76 890.4 550.56 891.4 549.36 892.4C542.96 898 536.76 903.6 530.36 909C529.16 910.2 528.36 911.6 526.76 911.6H526.36C525.96 910.6 525.96 909.8 525.96 909C525.96 906.6 526.76 904.6 527.56 902.6C529.56 897.6 532.16 893 533.76 887.6C534.16 886.2 534.76 884.8 534.76 883.4C534.76 882 534.16 880.6 532.56 879.4C531.56 878.6 530.56 878.4 529.76 878.4C527.76 878.4 525.96 879.6 524.16 880.8C519.36 884.2 514.76 888.2 510.36 892.4C509.56 893 508.56 893.6 507.76 894.2C509.96 888.6 512.56 883.4 514.96 878C516.36 875.4 517.36 872.4 517.76 869.4V869C517.76 867.6 516.96 867 515.56 867C514.56 867 512.96 867.6 511.76 868.4C497.16 881.6 481.96 900.4 463.96 914ZM595.93 925C596.33 929.8 600.13 933.8 605.93 934.2H607.13C626.13 934.2 643.13 903.4 655.73 891.8C654.13 896 651.33 905.2 651.33 912.8C651.33 919 653.13 924.2 658.73 925H660.53C680.93 925 710.93 900 728.53 887C729.33 886.4 729.73 885.8 729.73 885.2C729.73 884.4 729.33 884 728.53 884C727.93 884 727.33 884.2 726.33 885C709.33 898.2 677.73 920.4 662.73 920.4H662.53C659.13 920.2 657.73 918.4 657.73 915.6C657.73 908.6 665.73 895.8 667.53 889.6C668.33 887 669.33 884.2 669.33 881.8C669.33 880.2 668.73 878.8 667.33 878C666.53 877.6 665.93 877.4 665.13 877.4C662.33 877.4 659.73 880 657.33 882C652.73 886.2 623.33 928.6 607.13 928.6C604.33 928.4 602.53 927.8 601.93 924V923.6C601.93 918.4 612.13 901 620.13 889C622.73 884.6 625.93 881.6 628.33 878.2C628.93 877.4 629.33 876.4 629.33 875.4C629.33 873.4 628.13 871.6 626.13 871.6C624.73 871.6 622.93 872.6 620.93 874.8C616.93 879.4 595.93 909 595.93 924.2V925ZM714.412 923.4C715.412 924 716.412 924.4 717.412 924.4C721.412 924.4 725.212 919.8 728.612 916.6C740.812 905.4 753.212 894 765.412 882.6C766.812 881.4 768.212 880.6 770.412 878.8C770.212 882.6 770.012 885.4 770.012 888.2C770.012 891 769.812 894.6 769.812 898.2C769.812 906 770.812 914.4 777.612 917.8C780.212 919.2 783.012 919.8 786.012 919.8C803.812 919.8 825.412 897.6 835.612 886.2C836.012 885.8 836.212 885 836.212 884.6V884.2H836.012C833.412 884.2 808.212 916.4 787.812 916.4C785.212 916.4 782.612 915.8 780.212 914.6C776.212 912.4 775.212 904.8 775.212 897C775.212 890.6 775.812 884 775.812 880.2V879.4C775.612 875.4 774.012 873.2 771.212 873.2C770.012 873.2 768.612 873.6 767.012 874.6C760.212 878.8 738.012 899 729.412 906.4C729.412 904 730.012 902.4 731.012 901C735.412 892.6 742.612 880.8 745.612 872.6C745.812 872.2 745.812 871.6 745.812 871C745.812 869 744.612 866.8 742.412 866.8C740.612 866.8 738.212 868.2 735.412 872C726.412 883.8 719.012 896.4 713.412 910C712.412 912.4 711.412 915.2 711.412 917.6C711.412 920 712.212 922 714.412 923.4ZM836.629 924.4C861.029 919.2 888.829 900 908.429 885.8C909.629 885 910.029 884.4 910.029 884.2C910.029 883.8 909.629 883.8 909.429 883.8C909.229 883.8 908.829 883.8 908.629 884C903.429 887.6 898.229 891.4 893.029 894.8C882.029 901.8 848.829 919.4 836.029 920.8H834.829C831.029 920.8 829.629 918.2 829.629 914.6C829.629 911 831.229 906.8 832.829 904C837.629 896.2 843.029 888.6 848.029 881C849.029 879.6 850.429 878.4 850.829 877C851.029 876.6 851.029 876 851.029 875.4C851.029 873.6 850.029 872 848.029 872C846.429 872 844.429 873 841.629 875.8C833.029 884.6 823.229 900.2 823.029 913.2V913.6C823.029 920.6 826.829 924.8 833.229 924.8C834.229 924.8 835.429 924.6 836.629 924.4ZM859.029 862.8C864.229 861.2 866.629 859 866.629 857C866.629 856 865.629 855 863.829 854.4C862.229 853.8 860.829 853.6 859.429 853.6C855.029 853.6 853.029 856.4 853.029 859C853.029 861.2 854.429 863.2 857.029 863.2C857.629 863.2 858.229 863 859.029 862.8ZM844.848 808C877.448 802.2 918.248 802.6 948.848 801C950.848 801 951.848 801.2 951.848 802.2C951.848 802.8 951.648 803.6 950.848 804.8C933.248 834.4 880.048 936.6 872.448 970C871.848 972.2 871.648 974 871.648 975.6C871.648 979.8 873.448 981.4 875.448 981.4C877.448 981.4 879.648 979.6 880.448 977.8C880.648 977.4 880.648 977.2 880.648 977C880.648 975.2 878.048 975.2 876.848 974.2C877.048 972.8 877.248 971 877.648 969.6C890.048 927.2 936.848 845.6 959.048 805.2C960.048 803.6 962.248 800.6 965.248 800.6C975.448 800.2 1022.85 799.6 1062.65 799.6C1089.05 799.6 1112.05 799.8 1119.05 800.4C1120.05 800.6 1124.45 802.4 1125.85 802.4H1126.05C1126.25 802.4 1128.05 801 1128.05 799.6C1128.05 798.8 1127.25 798 1125.05 797.6C1120.05 797.2 1113.65 797 1108.65 796.8C1089.45 796.2 1022.65 794.8 986.848 794.8C979.248 794.8 973.048 794.8 969.048 795C967.648 795 967.048 794.8 967.048 794.2C967.048 793.6 967.448 793 968.048 792C972.248 785.4 983.048 769.6 987.448 762C988.848 760 990.248 757.8 990.248 756.2C990.248 755.6 990.048 755.2 989.648 754.8C988.048 753.4 986.448 752.8 984.848 752.8C982.648 752.8 980.648 754.2 979.048 756C975.048 760.4 960.648 786.8 958.048 791.4C956.648 794 956.048 795 952.848 795.2C931.648 795.8 888.048 798 867.048 798.8H856.048C850.248 798.8 844.848 799.2 839.248 801.2C835.448 802.4 834.448 804 834.448 805.4C834.448 805.8 834.648 806.4 834.848 806.8C835.448 807.8 836.048 808.6 838.848 808.6C840.248 808.6 842.248 808.4 844.848 808ZM878.774 1056C879.774 1056.2 880.774 1056.2 881.774 1056.2C889.774 1056.2 898.774 1051.6 904.574 1046C927.774 1024.2 947.574 992.2 962.574 964.8C969.174 952.4 975.374 939.8 981.974 927.2C982.974 925.4 984.374 923.6 985.974 922.4C1003.57 910 1021.97 899 1041.77 890.6C1045.77 889 1049.77 887.4 1053.77 885.6C1054.57 885.2 1055.17 884.6 1055.77 884C1055.57 883.8 1055.37 883.4 1055.17 883.2C1031.77 891.2 1009.77 902.4 988.574 916.6C988.774 916 988.774 915.6 988.774 915.4V914.8C990.974 910.4 1006.57 881.2 1006.77 879.4V878.6C1006.77 877.4 1006.17 876.6 1004.97 876.6C1004.57 876.6 1003.97 876.8 1003.37 877C1002.57 877.4 1001.97 878.2 1001.37 878.8C984.974 893.6 974.974 903.8 955.374 915.8C953.374 917.2 951.174 918 948.774 919.2C948.574 918.4 948.374 917.8 948.374 917C948.374 915.4 949.174 914 949.774 912.6C954.174 901.8 959.574 891.8 966.374 882.4C968.374 879.6 970.574 877.2 970.574 874.6C970.574 873.8 970.374 873 969.774 872.2C969.374 871.6 968.774 871.4 967.974 871.4C961.174 871.4 941.174 897 939.974 916.6V917.8C939.974 922.4 942.574 925.2 946.574 925.2C947.774 925.2 949.374 925 950.774 924.4C959.774 920.8 981.174 902.4 988.374 895.8C989.374 894.8 990.574 894 991.574 893C991.774 893.2 991.974 893.4 992.174 893.4C987.774 902.6 980.774 914.2 975.574 923.6C974.374 925.6 972.974 927.2 970.974 928.6C942.774 949 917.374 967.4 894.974 995C883.574 1009 869.774 1027.2 869.774 1045V1045.4C869.974 1051.8 872.374 1054.8 878.774 1056ZM880.374 1022.8C895.374 996 920.174 971.8 944.174 953.2C951.574 947.4 961.774 939.4 969.574 934.4C963.574 949.4 945.574 981.4 936.974 996C926.374 1014.2 914.374 1030.4 898.574 1044.6C894.374 1048.2 887.574 1051.6 881.774 1051.6H881.174C875.974 1051.4 874.174 1049.8 874.174 1045V1044.2C874.174 1036.6 876.574 1029.6 880.374 1022.8Z" fill="rgba(255, 255, 255, 0.3)"/>
</g>
<defs>
<clipPath id="clip0_2318_171226">
<rect width="1280" height="1280" fill="white"/>
</clipPath>
</defs>
</svg>
